<svg version="1.1" id="Layer_1" xmlns="http://www.w3.org/2000/svg" xmlns:xlink="http://www.w3.org/1999/xlink" x="0px" y="0px"
	 width="100%" viewBox="0 0 782 960" enable-background="new 0 0 782 960" xml:space="preserve">
<path fill="#FEFDFD" opacity="1.000000" stroke="none" 
	d="
M783.000000,371.000000 
	C783.000000,568.000000 783.000000,764.500000 783.000000,961.000000 
	C522.333313,961.000000 261.666656,961.000000 1.000000,961.000000 
	C1.000000,641.000000 1.000000,321.000000 1.000000,1.000000 
	C261.666656,1.000000 522.333313,1.000000 783.000000,1.000000 
	C783.000000,124.166664 783.000000,247.333328 783.000000,371.000000 
M228.998917,449.999603 
	C228.998917,449.999603 228.943970,449.981354 228.486572,450.144958 
	C228.197800,450.337708 228.032181,450.606384 227.748764,451.373444 
	C227.557999,451.645416 227.313354,451.854309 226.536819,452.158661 
	C226.359024,452.432037 226.181229,452.705444 226.004883,453.004883 
	C226.004883,453.004883 225.978867,453.003387 225.508545,453.163483 
	C225.210144,453.359039 225.042801,453.634277 225.003342,454.002899 
	C225.003342,454.002899 224.989792,454.006958 224.514999,454.177307 
	C224.347763,454.458588 224.180527,454.739838 223.778000,455.437561 
	C223.578842,455.696350 223.329559,455.890930 222.269455,456.009613 
	C221.546509,457.063141 220.823563,458.116638 219.855667,459.664551 
	C219.320435,460.152191 218.785202,460.639801 217.661499,461.247742 
	C217.490936,461.590607 217.320389,461.933472 216.993774,462.779480 
	C216.911240,463.113495 216.828705,463.447479 216.841187,463.900513 
	C216.841187,463.900513 216.814224,463.750610 216.245270,463.835083 
	C216.077454,464.159302 215.909622,464.483521 215.898300,464.838593 
	C215.898300,464.838593 215.772171,464.740906 215.288513,464.776520 
	C215.024796,464.964722 214.749344,465.133789 213.718643,465.193817 
	C213.134018,466.104736 212.549393,467.015686 211.758911,468.376709 
	C211.581055,468.669312 211.334061,468.881439 210.536743,469.165161 
	C210.358887,469.439178 210.181015,469.713226 210.002441,470.002441 
	C210.002441,470.002441 209.987274,470.003265 209.506577,470.187561 
	C209.359253,470.486359 209.211929,470.785126 209.013733,470.996826 
	C209.013733,470.996826 209.084839,471.068726 208.444458,471.089966 
	C207.910645,471.675751 207.376831,472.261536 206.060745,472.966827 
	C204.629089,473.069427 203.197433,473.172028 201.888748,473.265808 
	C201.291916,476.063934 200.748474,478.611877 200.191772,481.123322 
	C200.191772,481.123322 200.180832,481.144257 199.618408,481.282715 
	C199.463730,481.618408 199.309067,481.954071 199.002945,482.807648 
	C198.931778,483.153870 198.860596,483.500061 198.899429,483.897461 
	C198.899429,483.897461 198.847870,483.787628 198.329559,483.801239 
	C198.164719,483.853180 197.999863,483.905121 197.411453,484.130646 
	C197.152008,484.328461 197.009705,484.589996 196.651581,485.498993 
	C190.685196,492.774048 184.718796,500.049133 178.033203,508.201202 
	C177.554840,505.669800 177.202255,504.296387 177.046860,502.901001 
	C176.107468,494.464935 175.049973,486.037781 174.331009,477.582184 
	C170.460907,432.066559 172.652649,386.789093 179.983978,341.738647 
	C181.983978,329.448761 184.206757,317.195099 186.688934,304.337799 
	C186.721375,303.882233 186.753830,303.426666 187.214233,302.365143 
	C187.773529,299.978333 188.069931,297.487549 188.961746,295.232208 
	C189.971390,292.678955 191.515076,290.336884 192.906677,287.947540 
	C192.906677,287.947540 192.926620,287.858063 193.705582,287.880707 
	C219.429230,281.073151 244.910202,273.065826 270.945648,267.799805 
	C296.336182,262.664215 322.293488,260.330872 348.796143,256.874451 
	C349.854095,256.766479 350.912018,256.658508 352.843414,256.732819 
	C466.026184,249.545959 573.160156,271.711914 674.783875,324.287994 
	C669.878967,296.685364 663.571411,270.861053 654.893127,245.648911 
	C654.303772,243.936508 652.284058,242.203949 650.520386,241.486176 
	C628.945251,232.705399 607.476074,223.610748 585.594543,215.656006 
	C572.047302,210.731079 557.843384,207.612442 543.372437,203.328430 
	C542.938110,203.266129 542.503845,203.203827 541.472961,202.673218 
	C526.300903,199.551666 511.128784,196.430130 495.312469,193.116089 
	C494.866455,193.119614 494.420410,193.123154 493.306732,192.745178 
	C492.330719,192.538391 491.361725,192.287003 490.377655,192.131210 
	C439.126312,184.017792 387.650238,182.393219 336.013824,187.318375 
	C321.295471,188.722229 306.680176,191.207169 291.344177,193.120804 
	C290.903625,193.208786 290.463074,193.296768 289.214264,193.266876 
	C282.502991,194.524826 275.773315,195.692307 269.083435,197.055283 
	C223.062607,206.431473 178.448624,220.149170 135.782486,239.991547 
	C132.033432,241.735092 130.825653,244.435165 129.826584,247.834671 
	C115.220116,297.536743 105.200645,348.074005 102.019928,399.866364 
	C96.844490,484.139252 110.305954,564.859863 148.011627,640.942139 
	C151.428345,647.836365 155.226501,654.541565 159.336227,662.251404 
	C166.241577,649.014038 172.531876,636.955750 179.111145,624.745850 
	C179.111145,624.745850 179.176682,624.426147 179.766556,624.062561 
	C184.289352,616.452759 188.812164,608.843018 193.109482,601.126587 
	C193.109482,601.126587 193.303589,601.283203 193.920547,601.037476 
	C196.429794,597.200623 198.939056,593.363708 201.361053,589.451904 
	C201.361053,589.451904 201.475555,589.440613 202.065109,589.159485 
	C204.366684,585.762329 206.668243,582.365234 209.189056,578.816895 
	C209.189056,578.816895 209.183914,578.550598 209.818069,578.239868 
	C216.362778,569.647766 222.907486,561.055664 229.445816,552.374878 
	C229.445816,552.374878 229.534332,552.382996 230.120560,552.139709 
	C232.185913,549.527039 234.251251,546.914429 236.020554,543.992676 
	C236.020554,543.992676 236.310883,544.304626 236.920380,544.058105 
	C240.720795,539.481995 244.521194,534.905823 248.234985,530.040894 
	C248.234985,530.040894 248.279877,530.339050 248.908295,530.107971 
	C252.311615,526.485657 255.656281,522.805969 259.129456,519.251892 
	C268.854034,509.300690 278.631622,499.401398 288.189911,489.386902 
	C288.189911,489.386902 288.407501,489.418518 289.037201,489.199371 
	C291.767883,486.532440 294.498566,483.865509 297.125549,481.130463 
	C297.125549,481.130463 297.158600,481.250000 297.839264,481.118652 
	C310.604980,470.449188 323.370697,459.779694 336.059326,449.052094 
	C336.059326,449.052094 336.066620,449.148346 336.637146,449.094635 
	C336.846252,448.796387 337.055359,448.498169 337.112000,448.158844 
	C337.112000,448.158844 337.227600,448.266510 337.904297,448.136688 
	C340.723541,445.905945 343.542786,443.675232 345.956757,441.209473 
	C345.956757,441.209473 346.367950,441.427612 347.050079,441.300507 
	C359.382996,432.912964 371.715942,424.525421 384.102692,416.125000 
	C384.102692,416.125000 384.137634,416.082062 384.823456,415.987030 
	C392.940491,411.000916 401.057526,406.014801 409.584198,400.986755 
	C409.584198,400.986755 409.920563,400.749146 410.625580,400.773010 
	C477.291290,363.764130 548.433838,340.172607 625.399597,329.871338 
	C622.461548,328.500214 620.869019,327.659332 619.205872,326.995178 
	C574.465454,309.127319 528.298035,296.494690 480.555542,289.968506 
	C464.743683,287.807098 448.772949,286.807892 432.268463,285.089447 
	C431.849945,285.127563 431.431396,285.165710 430.222443,284.922882 
	C428.561646,284.793213 426.902893,284.621429 425.239716,284.540100 
	C383.844910,282.515930 342.527832,283.830444 301.676788,290.752167 
	C273.974426,295.445984 246.641190,302.337433 219.190918,308.461365 
	C217.156982,308.915131 214.282791,310.828796 213.892807,312.540741 
	C211.976089,320.954590 210.767151,329.529724 209.110657,338.686951 
	C209.111847,339.130463 209.113037,339.573975 208.733139,340.685669 
	C206.792450,354.783264 204.851776,368.880859 202.747284,384.168396 
	C249.633759,369.544342 296.050720,360.429443 343.702515,357.239838 
	C342.230103,358.983093 340.491241,360.104218 338.797119,361.289337 
	C327.514893,369.181946 316.242157,377.088135 305.001892,385.003326 
	C305.001892,385.003326 304.992493,384.966644 304.307587,385.080627 
	C300.738586,387.890594 297.169556,390.700562 293.607178,393.596924 
	C293.607178,393.596924 293.521606,393.583221 292.878418,393.756470 
	C287.766785,397.947144 282.655151,402.137817 277.498016,406.439636 
	C277.498016,406.439636 277.380249,406.463287 276.774658,406.572357 
	C275.593292,407.425354 274.411926,408.278351 272.687317,409.241272 
	C272.479095,409.532654 272.270905,409.824036 271.827454,410.523407 
	C271.628815,410.785217 271.369293,410.952576 270.559937,411.134888 
	C270.361237,411.391754 270.162537,411.648590 269.979248,411.981537 
	C269.979248,411.981537 269.907532,411.951691 269.191162,411.958069 
	C268.534180,412.712830 267.877167,413.467590 267.070923,414.233276 
	C267.070923,414.233276 267.213654,414.195801 266.657532,414.272034 
	C266.473083,414.579346 266.288635,414.886627 265.881226,415.582062 
	C265.674713,415.806458 265.427979,415.970337 264.633514,416.207184 
	C264.429016,416.481567 264.224518,416.755981 264.000000,417.000000 
	C264.000000,417.000000 264.026184,417.026337 263.254608,416.999207 
	C260.785400,417.378235 258.612427,418.038727 258.818542,421.810089 
	C257.549957,422.876678 256.281372,423.943237 254.531250,425.121887 
	C254.215317,425.290253 254.032410,425.551697 253.630600,426.427246 
	C253.158585,426.839081 252.686554,427.250916 251.946411,427.049164 
	C250.945358,428.308289 249.944290,429.567413 248.918289,431.166840 
	C248.918289,431.166840 248.914124,431.508087 248.290680,431.684479 
	C248.095535,432.045319 247.900406,432.406158 247.865234,432.709808 
	C247.865234,432.709808 247.695358,432.712433 247.042633,432.828583 
	C245.024490,434.553131 243.006363,436.277710 240.645874,438.021057 
	C240.505966,438.290100 240.366074,438.559143 240.228928,439.204254 
	C240.228928,439.204254 240.374527,439.551025 240.548447,439.486359 
	C240.548447,439.486359 240.400421,439.598236 239.973206,439.682648 
	C239.693817,439.850372 239.565231,440.096710 239.511703,440.469635 
	C239.511703,440.469635 239.537994,440.383942 239.194962,440.221313 
	C239.194962,440.221313 238.815750,440.203186 238.486923,440.164978 
	C238.315521,440.419220 238.144119,440.673462 237.991959,440.993134 
	C237.991959,440.993134 237.926346,440.974457 237.461609,441.134064 
	C237.173050,441.336914 237.015976,441.614258 237.001785,442.003387 
	C237.001785,442.003387 236.964630,441.991241 236.499802,442.146454 
	C236.205551,442.335815 236.033081,442.603638 235.741333,443.387634 
	C235.533722,443.660339 235.270065,443.858490 234.490204,444.145782 
	C234.199280,444.337830 234.030624,444.606598 234.000870,445.001251 
	C234.000870,445.001251 233.952240,444.983215 233.480072,445.116058 
	C233.174179,445.296906 233.003616,445.564148 232.990524,445.986053 
	C232.990524,445.986053 232.920792,445.969086 232.591248,446.015900 
	C232.253418,446.186371 232.124893,446.454712 232.211273,447.189209 
	C232.211273,447.189209 232.365799,447.523590 232.502075,447.700500 
	C232.502075,447.700500 232.445618,447.484436 231.907532,447.500671 
	C231.585724,447.659241 231.263901,447.817810 230.484558,448.128082 
	C230.196640,448.313324 230.022629,448.574463 229.979218,448.985199 
	C229.979218,448.985199 229.907455,448.961456 229.457596,449.133911 
	C229.179474,449.334076 229.020477,449.604340 228.998917,449.999603 
M550.836853,640.341736 
	C527.621582,678.684631 498.969757,712.470825 465.427246,742.145081 
	C424.570068,778.290405 378.708557,806.672363 329.410492,829.712646 
	C327.850647,830.441650 326.323914,831.241577 324.193604,832.300903 
	C345.154572,845.700134 366.098846,857.267944 388.022278,867.079346 
	C391.321655,868.555969 393.989471,868.612427 397.335999,867.036865 
	C440.136230,846.886108 480.569458,822.923828 517.434875,793.138367 
	C574.441956,747.079346 618.329407,690.993835 647.139221,623.399109 
	C664.760010,582.056580 675.523132,538.906372 680.766541,494.341492 
	C681.903809,484.675476 682.556763,474.952484 683.537781,464.093536 
	C630.480286,494.283936 575.679260,516.542358 516.854675,530.447754 
	C517.045471,528.339478 516.858887,527.249573 517.256897,526.451172 
	C551.097656,458.566406 596.024719,398.990967 653.070801,346.806732 
	C649.477966,347.290405 647.412598,347.582123 645.343628,347.844940 
	C573.034790,357.030457 504.597412,378.758667 440.386383,413.032043 
	C352.565125,459.907562 279.085327,523.342651 222.245102,605.511780 
	C205.167145,630.199951 189.338074,655.603333 176.196289,682.635254 
	C174.875397,685.352173 174.815277,687.415894 176.728683,689.867249 
	C189.731354,706.525513 202.626816,723.267517 215.582275,739.962769 
	C216.220108,740.784729 217.094498,741.423035 217.754288,742.047913 
	C273.745880,632.437683 352.869324,545.053772 459.512146,483.226105 
	C439.149048,524.408020 422.683197,566.895142 410.873932,611.804138 
	C467.963348,611.395386 523.231018,602.610840 577.460022,586.654663 
	C577.913208,587.083679 578.366394,587.512695 578.819580,587.941711 
	C569.609985,605.196350 560.400452,622.451050 550.836853,640.341736 
M443.963806,122.329865 
	C440.206909,128.529785 436.450012,134.729721 432.236969,141.682404 
	C428.707397,134.218048 425.605347,127.628609 422.477722,121.051323 
	C419.191589,114.140594 418.879761,113.997406 411.021973,115.541595 
	C407.424377,133.860031 403.812500,152.251389 400.126129,171.021759 
	C402.270966,171.270874 403.910706,171.325211 405.486816,171.670349 
	C409.902802,172.637329 411.662354,170.859009 412.139893,166.433319 
	C412.727539,160.987030 414.003235,155.613068 415.025757,150.216217 
	C415.923645,145.477234 416.882446,140.749817 418.099243,134.570297 
	C422.813019,144.119339 426.815979,152.228424 431.137054,160.981918 
	C436.497467,152.580292 441.422699,144.860733 447.011475,136.101135 
	C448.036102,149.575012 448.953186,161.635208 449.891479,173.973862 
	C453.733917,174.194870 457.094116,174.388138 460.756531,174.598785 
	C459.921906,164.380173 459.157928,154.927277 458.375549,145.475906 
	C457.599091,136.096619 456.804047,126.718849 456.028870,117.479706 
	C450.773621,116.589699 446.264099,115.824425 443.963806,122.329865 
M188.817871,149.911499 
	C193.554871,166.974701 198.291855,184.037903 203.089661,201.320114 
	C206.845230,200.241272 209.835022,199.382401 213.206879,198.413773 
	C211.325531,191.567169 209.537201,185.058990 207.770432,178.629318 
	C216.589630,174.533478 216.933990,174.583237 222.975540,181.006638 
	C225.827881,184.039276 228.451202,187.323669 231.557800,190.063705 
	C232.885117,191.234436 235.221893,191.869659 237.028275,191.741058 
	C239.541779,191.562103 241.987946,190.437012 245.153214,189.516052 
	C238.679794,182.710693 232.760391,176.487762 226.897064,170.323807 
	C233.490906,160.868927 233.971542,153.255829 228.640305,145.759903 
	C224.354202,139.733444 216.864899,138.195984 206.268005,141.150375 
	C201.135788,142.581207 196.001373,144.004608 190.858917,145.397934 
	C188.865997,145.937912 187.333511,146.679199 188.817871,149.911499 
M169.723282,182.388885 
	C165.408310,185.938354 170.393158,188.123398 170.574356,191.226196 
	C173.189362,190.429092 175.359604,189.767563 177.776596,189.030823 
	C178.961365,192.183090 180.054688,195.092072 181.217102,198.184875 
	C173.915802,202.530273 166.790512,205.410721 159.001480,200.476746 
	C152.331711,196.251770 147.473434,184.666779 149.618423,177.158432 
	C153.386444,163.968842 164.717117,163.393890 176.144562,162.394775 
	C175.348312,159.225464 174.595566,156.229309 173.823349,153.155670 
	C166.346588,152.242188 159.662231,154.063858 153.363556,157.301727 
	C141.817795,163.236862 136.060196,174.984650 138.448212,187.228012 
	C141.456482,202.651505 150.865082,212.661224 164.412247,213.471191 
	C175.036255,214.106384 184.177383,209.636353 191.905960,202.433212 
	C192.598083,201.788147 193.139984,200.224533 192.851807,199.403275 
	C190.231216,191.935196 187.410614,184.537292 184.579941,176.934708 
	C179.511612,178.793015 174.988297,180.451492 169.723282,182.388885 
M562.336731,175.700821 
	C560.578613,181.525208 558.820496,187.349594 556.954590,193.530975 
	C569.089111,197.279053 580.737305,200.876923 592.661926,204.560165 
	C593.706299,200.914413 594.551697,197.963455 595.449158,194.830750 
	C586.751953,192.063828 578.592590,189.468018 570.223877,186.805603 
	C571.769531,182.021194 573.125488,177.824036 574.593750,173.279068 
	C581.165649,175.273193 587.269714,177.125381 593.671936,179.068054 
	C594.733643,175.406876 595.587036,172.464188 596.474304,169.404572 
	C589.948059,167.293228 583.994324,165.367096 577.574219,163.290100 
	C578.832703,159.371353 579.976746,155.809006 581.172729,152.084732 
	C589.642700,154.653122 597.647827,157.080551 605.838013,159.564102 
	C606.920166,155.905380 607.787964,152.971176 608.711426,149.848969 
	C596.801086,146.148804 585.581177,142.663147 573.854492,139.020035 
	C570.027649,151.248016 566.319397,163.097153 562.336731,175.700821 
M246.204941,163.454681 
	C247.886703,171.563599 249.568466,179.672531 251.374100,188.378662 
	C263.750458,185.861786 275.820557,183.407196 288.073181,180.915497 
	C287.194763,177.149551 286.499390,174.168396 285.773224,171.055145 
	C276.916168,172.809830 268.641846,174.449081 259.949707,176.171097 
	C258.959351,171.390961 258.035492,166.931717 257.049652,162.173370 
	C263.762665,160.759689 270.021240,159.441711 276.581055,158.060287 
	C275.858948,154.510208 275.243805,151.486206 274.563080,148.139618 
	C267.898529,149.469345 261.630035,150.720047 254.922714,152.058304 
	C254.137497,147.929260 253.442657,144.275482 252.713272,140.440002 
	C261.448700,138.572128 269.616058,136.825714 277.900208,135.054337 
	C277.111786,131.414078 276.490906,128.547287 275.776215,125.247406 
	C263.699860,127.691528 252.047424,130.049850 240.059296,132.476105 
	C242.110336,142.812973 244.075455,152.716766 246.204941,163.454681 
M630.622803,198.276489 
	C631.394958,204.810669 628.190857,207.887344 621.938843,206.165771 
	C619.114319,205.388000 616.330017,203.994553 613.910950,202.324829 
	C610.422791,199.917084 607.283875,197.003326 603.849670,194.185501 
	C602.832458,196.039673 602.167175,197.793243 601.050171,199.184036 
	C598.063293,202.902985 599.326233,205.739334 602.986572,207.543213 
	C609.930847,210.965439 616.845520,214.682739 624.173523,217.020645 
	C630.676758,219.095459 636.232910,215.951538 639.980164,210.242279 
	C643.842285,204.358032 643.821289,198.185822 639.614258,192.538025 
	C637.449951,189.632568 634.668152,187.171921 632.063354,184.614227 
	C629.689270,182.283066 626.683655,180.419754 624.896912,177.726318 
	C623.672668,175.880676 623.113708,172.496048 624.018555,170.673920 
	C624.777710,169.145004 628.201904,167.995209 630.234924,168.265579 
	C633.247437,168.666168 636.281738,170.132584 638.926941,171.761841 
	C642.401001,173.901566 645.505981,176.640427 649.018982,179.311188 
	C649.977234,177.653168 650.731506,175.985870 651.806641,174.560638 
	C654.299438,171.256104 653.511047,168.804184 650.075806,166.954483 
	C644.977966,164.209549 640.080322,160.867661 634.680725,158.959213 
	C625.785950,155.815430 617.992493,158.693954 614.159668,165.480438 
	C610.136292,172.604492 611.554810,179.028625 618.645935,186.024963 
	C622.535828,189.862808 626.379578,193.747345 630.622803,198.276489 
M504.658020,138.680435 
	C503.970428,135.090378 502.843628,131.517685 502.701019,127.906097 
	C502.501099,122.843185 498.959900,123.101753 495.600830,122.254196 
	C492.121002,121.376167 490.970917,123.253448 489.639709,125.767708 
	C483.422791,137.509369 477.087372,149.188278 470.795105,160.890060 
	C468.336151,165.462982 465.879272,170.037033 462.885590,175.607727 
	C467.874084,174.771286 472.098724,179.374573 475.175323,173.180496 
	C479.812408,163.844604 480.028839,163.952271 490.390930,165.672836 
	C490.718903,165.727280 491.048431,165.772446 491.377045,165.823074 
	C500.282623,167.195175 500.521942,167.159348 501.898010,176.343002 
	C502.515961,180.467194 504.344666,182.111008 508.272522,182.069000 
	C509.694366,182.053772 511.118988,182.298370 513.017334,182.466461 
	C510.218842,167.834518 507.511383,153.678787 504.658020,138.680435 
M326.864380,148.488510 
	C322.653137,140.169312 318.394318,131.873642 314.261932,123.515442 
	C313.138580,121.243378 312.064392,119.412590 309.066498,120.461395 
	C306.293518,121.431519 302.564056,119.773209 301.684967,125.007088 
	C299.895874,135.659058 297.192963,146.156662 294.901611,156.725464 
	C293.227570,164.447067 291.609528,172.180832 289.870819,180.359253 
	C291.845581,180.191681 293.144379,179.974884 294.440277,179.991287 
	C298.505585,180.042786 300.784668,178.465958 301.073883,174.052734 
	C301.265839,171.123276 302.287872,168.248199 302.959717,165.253342 
	C306.488434,164.787933 309.774506,164.315277 313.070496,163.927094 
	C323.308838,162.721222 323.427551,162.677063 327.964417,172.077698 
	C329.212280,174.663330 330.602386,175.577957 333.330811,174.936569 
	C335.218414,174.492828 337.181396,174.369720 339.815216,174.006058 
	C335.430573,165.365356 331.317139,157.259155 326.864380,148.488510 
M534.797668,142.210846 
	C531.520020,156.586395 528.242310,170.961929 524.875549,185.728180 
	C528.539185,186.541321 531.704956,187.243973 535.107666,187.999191 
	C538.638855,172.676590 542.061096,157.826889 545.570618,142.598312 
	C550.992554,143.723007 555.968445,144.755157 561.336548,145.868683 
	C562.064453,142.435226 562.701843,139.428604 563.428284,136.001984 
	C549.399475,132.805878 535.851013,129.719223 521.858154,126.531296 
	C521.093933,130.138290 520.433655,133.254822 519.752502,136.469925 
	C522.354309,137.091705 524.330078,137.408981 526.196960,138.045578 
	C529.148438,139.052017 532.026855,140.272491 534.797668,142.210846 
M352.249146,172.791443 
	C355.587616,172.791443 358.926086,172.791443 362.531708,172.791443 
	C361.585419,156.951126 360.676941,141.743195 359.749481,126.217690 
	C365.416718,125.820824 370.451202,125.468269 375.806488,125.093246 
	C375.506744,121.370689 375.269409,118.423325 374.992767,114.987923 
	C360.861176,115.852867 346.977997,116.702599 333.038208,117.555794 
	C333.038208,121.040886 333.038208,124.121246 333.038208,127.325073 
	C338.594452,127.325073 343.794708,127.325073 349.245880,127.325073 
	C350.169189,142.439499 351.072266,157.222076 352.249146,172.791443 
z"/>
<path fill="#F01C2A" opacity="1.000000" stroke="none" 
	d="
M431.012878,285.203827 
	C431.431396,285.165710 431.849945,285.127563 432.707092,285.549347 
	C433.704926,286.314148 434.240112,286.825256 434.826874,286.893707 
	C449.606049,288.617035 464.443420,289.931610 479.160309,292.074799 
	C495.849274,294.505127 512.579773,297.003906 529.025757,300.668488 
	C555.248535,306.511688 581.028809,314.080597 606.094727,323.883026 
	C609.714355,325.298553 613.251770,326.924316 617.628052,328.795105 
	C616.071228,329.537781 615.670898,329.847229 615.230957,329.921356 
	C603.000244,331.982239 590.733704,333.848694 578.544006,336.126953 
	C571.730835,337.400360 565.037048,339.321930 558.302429,341.003357 
	C550.002380,343.075592 541.652649,344.984314 533.441711,347.367920 
	C525.709900,349.612457 518.062256,352.195343 510.498474,354.959991 
	C495.036713,360.611450 479.505493,366.119232 464.292053,372.388062 
	C453.091064,377.003510 442.338043,382.710144 431.407074,387.975494 
	C425.015442,391.054291 418.622528,394.137817 412.339996,397.428772 
	C411.252228,397.998596 410.713074,399.615753 409.920532,400.749146 
	C409.920563,400.749146 409.584198,400.986755 408.977539,400.965698 
	C407.551544,401.025574 406.581970,400.849609 405.936096,401.227264 
	C399.621582,404.919220 393.315308,408.630737 387.123535,412.522644 
	C385.875549,413.307129 385.120148,414.875244 384.137634,416.082031 
	C384.137634,416.082062 384.102692,416.125000 383.691711,416.075562 
	C382.305359,416.173553 381.147217,416.031708 380.383667,416.514221 
	C374.381042,420.307953 368.271881,423.973022 362.555084,428.167786 
	C356.939636,432.288269 351.746460,436.984192 346.367920,441.427612 
	C346.367950,441.427612 345.956757,441.209473 345.799011,441.215546 
	C342.836731,443.569916 340.032166,445.918213 337.227600,448.266510 
	C337.227600,448.266510 337.112000,448.158844 336.904724,448.206696 
	C336.487152,448.552460 336.276886,448.850403 336.066620,449.148346 
	C336.066620,449.148346 336.059326,449.052094 335.722534,449.026367 
	C334.600250,449.208862 333.642242,449.197388 333.055145,449.658325 
	C324.763580,456.169067 316.199493,462.387573 308.403595,469.451782 
	C304.431641,473.050964 298.092102,474.691650 297.158600,481.250000 
	C297.158600,481.250000 297.125549,481.130463 296.810791,481.121826 
	C293.799896,483.881622 291.103699,486.650085 288.407532,489.418518 
	C288.407501,489.418518 288.189911,489.386902 287.936646,489.291626 
	C286.820343,489.611755 285.765289,489.833801 285.122894,490.471466 
	C274.888336,500.630402 264.603912,510.743256 254.583893,521.111145 
	C252.031998,523.751709 250.357498,527.240173 248.279877,530.339050 
	C248.279877,530.339050 248.234985,530.040894 247.917709,530.102173 
	C243.803345,534.073914 239.968597,537.949402 236.265427,541.946777 
	C235.880585,542.362183 236.276962,543.501282 236.310883,544.304626 
	C236.310883,544.304626 236.020554,543.992676 235.804474,544.072021 
	C233.570358,546.895264 231.552338,549.639099 229.534317,552.382996 
	C229.534332,552.382996 229.445816,552.374878 229.092621,552.353699 
	C223.897217,557.826050 218.834229,563.145508 214.307159,568.887451 
	C212.086441,571.704102 210.860229,575.304749 209.183914,578.550598 
	C209.183914,578.550598 209.189056,578.816895 208.711029,578.911987 
	C205.980515,582.484863 203.728043,585.962769 201.475555,589.440613 
	C201.475555,589.440613 201.361053,589.451904 201.036499,589.353882 
	C198.242493,593.265015 195.773041,597.274109 193.303589,601.283203 
	C193.303589,601.283203 193.109482,601.126587 192.868408,601.218811 
	C189.370972,606.014893 185.912384,610.595398 182.937485,615.471008 
	C181.270172,618.203613 180.403885,621.424988 179.176682,624.426147 
	C179.176682,624.426147 179.111145,624.745850 178.621567,624.869507 
	C173.813843,632.294739 169.437363,639.562683 165.203796,646.913025 
	C163.283630,650.246826 161.646759,653.743774 159.526611,657.854553 
	C158.308258,655.996277 157.487198,654.994202 156.933868,653.861328 
	C151.430756,642.594666 145.267212,631.585693 140.659012,619.961304 
	C132.979385,600.589172 126.170090,580.865845 119.282829,561.189392 
	C117.060661,554.840820 115.268921,548.258118 114.110710,541.637329 
	C111.404755,526.168945 108.916451,510.649811 106.884270,495.080200 
	C105.192245,482.116669 103.595856,469.074829 103.157822,456.027374 
	C102.276428,429.774170 102.701340,403.504425 105.974556,377.381805 
	C108.257538,359.162048 109.861351,340.785614 113.473473,322.821960 
	C118.103531,299.795959 124.145897,277.033112 130.283768,254.347382 
	C131.625839,249.387085 131.362396,243.050415 139.429260,240.816238 
	C149.810013,237.941208 159.477936,232.503677 169.468597,228.206406 
	C188.513412,220.014679 208.294144,214.044113 228.287415,208.701797 
	C233.566833,207.291122 238.694336,205.217529 244.030701,204.132462 
	C258.441559,201.202209 272.935089,198.679794 287.366669,195.847015 
	C288.374237,195.649246 289.142822,194.233887 290.022522,193.384750 
	C290.463074,193.296768 290.903625,193.208786 291.981995,193.410416 
	C297.721344,193.401077 302.921295,193.634735 307.907806,192.713333 
	C332.884979,188.098068 358.174072,186.508163 383.437286,186.251938 
	C405.588470,186.027283 427.769470,187.854492 449.921417,189.065704 
	C457.818909,189.497528 465.659180,190.892944 473.545135,191.642944 
	C480.340485,192.289215 487.163574,192.643387 493.974396,193.126678 
	C494.420410,193.123154 494.866455,193.119614 495.709686,193.569305 
	C496.994232,194.659134 497.802338,195.667618 498.780884,195.876068 
	C511.465729,198.578079 524.163330,201.225037 536.891968,203.710617 
	C538.518738,204.028305 540.338928,203.355469 542.069519,203.141525 
	C542.503845,203.203827 542.938110,203.266129 543.758545,203.817566 
	C545.109314,204.864655 546.010681,205.623886 547.048218,205.950638 
	C564.875793,211.564865 582.762695,216.994263 600.542419,222.754791 
	C609.186768,225.555496 617.717102,228.755417 626.151184,232.142776 
	C633.063416,234.918915 639.865173,238.028702 646.492004,241.427139 
	C649.023804,242.725555 651.569397,244.867004 652.977905,247.283401 
	C655.126404,250.969238 656.717407,255.116806 657.799744,259.262909 
	C661.809937,274.624237 665.596252,290.045807 669.286743,305.487762 
	C670.457336,310.385773 671.065979,315.418121 672.025391,320.926422 
	C665.227722,317.532593 659.130859,314.404541 652.960266,311.429077 
	C645.110107,307.643738 637.362000,303.575256 629.278503,300.361908 
	C616.996094,295.479462 604.474426,291.196045 592.032654,286.718475 
	C583.940002,283.806030 575.967224,280.374817 567.663269,278.271820 
	C547.607483,273.192657 527.433777,268.549408 507.213837,264.162842 
	C499.159637,262.415558 490.847229,261.881042 482.672089,260.662079 
	C475.175262,259.544220 467.743713,257.837463 460.213867,257.126709 
	C448.829834,256.052124 437.391144,255.146179 425.965515,255.007874 
	C402.053497,254.718353 378.134766,254.962540 354.219208,255.074402 
	C353.467194,255.077927 352.719604,256.036926 351.969971,256.550507 
	C350.912018,256.658508 349.854095,256.766479 348.079102,256.567993 
	C346.376312,256.176910 345.373627,255.930893 344.407257,256.031982 
	C331.107086,257.423035 317.739624,258.388306 304.532990,260.403839 
	C286.296570,263.187073 268.049438,266.174957 250.054749,270.186829 
	C233.489700,273.880035 217.225861,278.950928 200.895920,283.646515 
	C198.069519,284.459259 195.574631,286.424927 192.926620,287.858063 
	C192.926620,287.858063 192.906677,287.947540 192.475693,287.920685 
	C190.987350,288.237976 189.107193,288.419098 189.001602,288.951874 
	C188.082642,293.589172 187.481705,298.289490 186.786255,302.971100 
	C186.753830,303.426666 186.721375,303.882233 186.200470,304.766541 
	C185.149033,306.902832 184.368362,308.571747 184.057510,310.323975 
	C181.603058,324.160095 178.826172,337.956482 176.949814,351.873169 
	C174.587250,369.395966 171.947266,386.981781 171.279434,404.610565 
	C170.091141,435.978210 170.631348,467.393402 174.149323,498.654419 
	C174.588928,502.560760 176.221756,506.332794 177.685013,511.527985 
	C183.530472,504.456207 188.356247,498.843658 192.907059,493.016388 
	C195.149536,490.144897 196.883698,486.876465 198.847870,483.787628 
	C198.847870,483.787628 198.899429,483.897461 199.235138,483.932312 
	C200.403961,482.668945 201.237091,481.370758 202.032822,480.044617 
	C201.995422,480.016663 202.081085,480.052460 202.318268,479.957275 
	C202.704254,479.566467 202.853073,479.270844 203.003433,478.989990 
	C203.004974,479.004730 202.975647,479.000580 203.311310,478.985229 
	C204.085861,478.296783 204.524765,477.623718 204.981293,476.975342 
	C204.998917,477.000031 204.949432,476.964783 205.291473,476.954712 
	C206.039520,476.241882 206.445526,475.539124 206.883987,474.915649 
	C206.916443,474.994965 206.813629,474.857849 207.169250,474.869781 
	C207.945999,474.175812 208.367142,473.469879 208.790207,472.747589 
	C208.792130,472.731232 208.762131,472.712860 209.107986,472.690186 
	C212.595337,470.850616 216.159225,469.370422 215.772171,464.740906 
	C215.772171,464.740906 215.898300,464.838593 216.115784,464.796509 
	C216.493591,464.419800 216.653900,464.085205 216.814209,463.750610 
	C216.814224,463.750610 216.841187,463.900513 217.154526,463.906036 
	C223.333710,459.232056 229.277893,454.623993 232.445618,447.484436 
	C232.445618,447.484436 232.502075,447.700500 232.760162,447.675873 
	C233.425781,447.173859 233.833313,446.696472 234.554733,446.126648 
	C235.987076,444.772522 237.105530,443.510834 238.525543,442.119751 
	C239.064041,441.454865 239.301010,440.919403 239.537994,440.383942 
	C239.537994,440.383942 239.511703,440.469635 239.835541,440.524658 
	C240.239731,440.252502 240.320068,439.925385 240.400421,439.598236 
	C240.400421,439.598236 240.548447,439.486359 240.837189,439.576233 
	C243.315750,437.348236 245.505554,435.030334 247.695343,432.712433 
	C247.695358,432.712433 247.865234,432.709808 248.115112,432.687103 
	C248.548050,432.278961 248.731094,431.893524 248.914124,431.508087 
	C248.914124,431.508087 248.918289,431.166840 249.111115,431.053253 
	C249.303925,430.939667 249.681122,430.912811 250.036255,430.927979 
	C250.748932,430.473022 251.106461,430.002930 251.508301,429.499023 
	C251.552612,429.465240 251.575150,429.356049 251.919434,429.536896 
	C253.269272,428.557281 254.274841,427.396790 255.628937,426.170227 
	C260.490936,424.674957 263.842316,422.019104 265.593811,417.237152 
	C267.291870,416.110229 268.650208,415.062012 270.356537,413.970947 
	C273.262848,411.737732 277.513336,411.060608 277.380249,406.463287 
	C277.380249,406.463287 277.498016,406.439636 277.863983,406.573914 
	C283.335175,402.967712 288.456360,399.248322 293.505737,395.433868 
	C293.805786,395.207153 293.529602,394.217712 293.521606,393.583221 
	C293.521606,393.583221 293.607178,393.596924 293.966156,393.678284 
	C298.584442,391.682159 303.382416,390.258087 304.992493,384.966644 
	C304.992493,384.966644 305.001892,385.003326 305.368225,385.026337 
	C307.454498,384.220856 309.305267,383.586426 310.871460,382.530060 
	C317.415985,378.116180 323.787750,373.442230 330.391144,369.120880 
	C336.377380,365.203400 342.581970,361.619537 349.046204,357.671204 
	C347.786774,356.571136 347.038513,355.358978 346.339905,355.386993 
	C298.631805,357.299469 252.447952,367.729706 205.642120,381.229462 
	C206.308090,374.278107 206.959900,368.112854 207.474594,361.936127 
	C208.082977,354.635071 208.572937,347.324127 209.114227,340.017487 
	C209.113037,339.573975 209.111847,339.130463 209.550598,338.268494 
	C210.643005,336.198334 211.564850,334.598999 211.898224,332.885223 
	C212.969635,327.377594 213.449066,321.724091 214.936691,316.342438 
	C215.577454,314.024414 217.844727,311.843781 219.907135,310.326782 
	C221.650330,309.044556 224.126602,308.646973 226.342743,308.137634 
	C242.740829,304.368896 259.031555,299.943726 275.594604,297.128632 
	C297.562317,293.394928 319.689697,290.380737 341.855988,288.104492 
	C359.624359,286.279877 377.543915,285.720001 395.413940,285.173065 
	C405.673553,284.859070 415.967255,285.729309 426.247986,285.962036 
	C427.829773,285.997894 429.424255,285.470673 431.012878,285.203827 
z"/>
<path fill="#4F3227" opacity="1.000000" stroke="none" 
	d="
M551.013916,640.023682 
	C560.400452,622.451050 569.609985,605.196350 578.819580,587.941711 
	C578.366394,587.512695 577.913208,587.083679 577.460022,586.654663 
	C523.231018,602.610840 467.963348,611.395386 410.873932,611.804138 
	C422.683197,566.895142 439.149048,524.408020 459.512146,483.226105 
	C352.869324,545.053772 273.745880,632.437683 217.754288,742.047913 
	C217.094498,741.423035 216.220108,740.784729 215.582275,739.962769 
	C202.626816,723.267517 189.731354,706.525513 176.728683,689.867249 
	C174.815277,687.415894 174.875397,685.352173 176.196289,682.635254 
	C189.338074,655.603333 205.167145,630.199951 222.245102,605.511780 
	C279.085327,523.342651 352.565125,459.907562 440.386383,413.032043 
	C504.597412,378.758667 573.034790,357.030457 645.343628,347.844940 
	C647.412598,347.582123 649.477966,347.290405 653.070801,346.806732 
	C596.024719,398.990967 551.097656,458.566406 517.256897,526.451172 
	C516.858887,527.249573 517.045471,528.339478 516.854675,530.447754 
	C575.679260,516.542358 630.480286,494.283936 683.537781,464.093536 
	C682.556763,474.952484 681.903809,484.675476 680.766541,494.341492 
	C675.523132,538.906372 664.760010,582.056580 647.139221,623.399109 
	C618.329407,690.993835 574.441956,747.079346 517.434875,793.138367 
	C480.569458,822.923828 440.136230,846.886108 397.335999,867.036865 
	C393.989471,868.612427 391.321655,868.555969 388.022278,867.079346 
	C366.098846,857.267944 345.154572,845.700134 324.193604,832.300903 
	C326.323914,831.241577 327.850647,830.441650 329.410492,829.712646 
	C378.708557,806.672363 424.570068,778.290405 465.427246,742.145081 
	C498.969757,712.470825 527.621582,678.684631 551.013916,640.023682 
z"/>
<path fill="#51392F" opacity="1.000000" stroke="none" 
	d="
M444.142883,122.002632 
	C446.264099,115.824425 450.773621,116.589699 456.028870,117.479706 
	C456.804047,126.718849 457.599091,136.096619 458.375549,145.475906 
	C459.157928,154.927277 459.921906,164.380173 460.756531,174.598785 
	C457.094116,174.388138 453.733917,174.194870 449.891479,173.973862 
	C448.953186,161.635208 448.036102,149.575012 447.011475,136.101135 
	C441.422699,144.860733 436.497467,152.580292 431.137054,160.981918 
	C426.815979,152.228424 422.813019,144.119339 418.099243,134.570297 
	C416.882446,140.749817 415.923645,145.477234 415.025757,150.216217 
	C414.003235,155.613068 412.727539,160.987030 412.139893,166.433319 
	C411.662354,170.859009 409.902802,172.637329 405.486816,171.670349 
	C403.910706,171.325211 402.270966,171.270874 400.126129,171.021759 
	C403.812500,152.251389 407.424377,133.860031 411.021973,115.541595 
	C418.879761,113.997406 419.191589,114.140594 422.477722,121.051323 
	C425.605347,127.628609 428.707397,134.218048 432.236969,141.682404 
	C436.450012,134.729721 440.206909,128.529785 444.142883,122.002632 
z"/>
<path fill="#52392F" opacity="1.000000" stroke="none" 
	d="
M188.707504,149.529572 
	C187.333511,146.679199 188.865997,145.937912 190.858917,145.397934 
	C196.001373,144.004608 201.135788,142.581207 206.268005,141.150375 
	C216.864899,138.195984 224.354202,139.733444 228.640305,145.759903 
	C233.971542,153.255829 233.490906,160.868927 226.897064,170.323807 
	C232.760391,176.487762 238.679794,182.710693 245.153214,189.516052 
	C241.987946,190.437012 239.541779,191.562103 237.028275,191.741058 
	C235.221893,191.869659 232.885117,191.234436 231.557800,190.063705 
	C228.451202,187.323669 225.827881,184.039276 222.975540,181.006638 
	C216.933990,174.583237 216.589630,174.533478 207.770432,178.629318 
	C209.537201,185.058990 211.325531,191.567169 213.206879,198.413773 
	C209.835022,199.382401 206.845230,200.241272 203.089661,201.320114 
	C198.291855,184.037903 193.554871,166.974701 188.707504,149.529572 
M202.251434,159.148636 
	C203.212387,162.457794 204.173340,165.766953 205.297470,169.638031 
	C211.241928,167.501907 218.171417,167.917664 220.931061,161.159988 
	C222.446777,157.448456 221.488235,153.297806 218.042038,150.846939 
	C212.022751,146.566162 206.506256,150.724304 200.473816,151.977921 
	C201.102692,154.540421 201.571014,156.448746 202.251434,159.148636 
z"/>
<path fill="#51392F" opacity="1.000000" stroke="none" 
	d="
M170.094131,182.249435 
	C174.988297,180.451492 179.511612,178.793015 184.579941,176.934708 
	C187.410614,184.537292 190.231216,191.935196 192.851807,199.403275 
	C193.139984,200.224533 192.598083,201.788147 191.905960,202.433212 
	C184.177383,209.636353 175.036255,214.106384 164.412247,213.471191 
	C150.865082,212.661224 141.456482,202.651505 138.448212,187.228012 
	C136.060196,174.984650 141.817795,163.236862 153.363556,157.301727 
	C159.662231,154.063858 166.346588,152.242188 173.823349,153.155670 
	C174.595566,156.229309 175.348312,159.225464 176.144562,162.394775 
	C164.717117,163.393890 153.386444,163.968842 149.618423,177.158432 
	C147.473434,184.666779 152.331711,196.251770 159.001480,200.476746 
	C166.790512,205.410721 173.915802,202.530273 181.217102,198.184875 
	C180.054688,195.092072 178.961365,192.183090 177.776596,189.030823 
	C175.359604,189.767563 173.189362,190.429092 170.574356,191.226196 
	C170.393158,188.123398 165.408310,185.938354 170.094131,182.249435 
z"/>
<path fill="#51392F" opacity="1.000000" stroke="none" 
	d="
M562.473938,175.323547 
	C566.319397,163.097153 570.027649,151.248016 573.854492,139.020035 
	C585.581177,142.663147 596.801086,146.148804 608.711426,149.848969 
	C607.787964,152.971176 606.920166,155.905380 605.838013,159.564102 
	C597.647827,157.080551 589.642700,154.653122 581.172729,152.084732 
	C579.976746,155.809006 578.832703,159.371353 577.574219,163.290100 
	C583.994324,165.367096 589.948059,167.293228 596.474304,169.404572 
	C595.587036,172.464188 594.733643,175.406876 593.671936,179.068054 
	C587.269714,177.125381 581.165649,175.273193 574.593750,173.279068 
	C573.125488,177.824036 571.769531,182.021194 570.223877,186.805603 
	C578.592590,189.468018 586.751953,192.063828 595.449158,194.830750 
	C594.551697,197.963455 593.706299,200.914413 592.661926,204.560165 
	C580.737305,200.876923 569.089111,197.279053 556.954590,193.530975 
	C558.820496,187.349594 560.578613,181.525208 562.473938,175.323547 
z"/>
<path fill="#51392E" opacity="1.000000" stroke="none" 
	d="
M246.122742,163.037628 
	C244.075455,152.716766 242.110336,142.812973 240.059296,132.476105 
	C252.047424,130.049850 263.699860,127.691528 275.776215,125.247406 
	C276.490906,128.547287 277.111786,131.414078 277.900208,135.054337 
	C269.616058,136.825714 261.448700,138.572128 252.713272,140.440002 
	C253.442657,144.275482 254.137497,147.929260 254.922714,152.058304 
	C261.630035,150.720047 267.898529,149.469345 274.563080,148.139618 
	C275.243805,151.486206 275.858948,154.510208 276.581055,158.060287 
	C270.021240,159.441711 263.762665,160.759689 257.049652,162.173370 
	C258.035492,166.931717 258.959351,171.390961 259.949707,176.171097 
	C268.641846,174.449081 276.916168,172.809830 285.773224,171.055145 
	C286.499390,174.168396 287.194763,177.149551 288.073181,180.915497 
	C275.820557,183.407196 263.750458,185.861786 251.374100,188.378662 
	C249.568466,179.672531 247.886703,171.563599 246.122742,163.037628 
z"/>
<path fill="#C6424B" opacity="1.000000" stroke="none" 
	d="
M289.618408,193.325806 
	C289.142822,194.233887 288.374237,195.649246 287.366669,195.847015 
	C272.935089,198.679794 258.441559,201.202209 244.030701,204.132462 
	C238.694336,205.217529 233.566833,207.291122 228.287415,208.701797 
	C208.294144,214.044113 188.513412,220.014679 169.468597,228.206406 
	C159.477936,232.503677 149.810013,237.941208 139.429260,240.816238 
	C131.362396,243.050415 131.625839,249.387085 130.283768,254.347382 
	C124.145897,277.033112 118.103531,299.795959 113.473473,322.821960 
	C109.861351,340.785614 108.257538,359.162048 105.974556,377.381805 
	C102.701340,403.504425 102.276428,429.774170 103.157822,456.027374 
	C103.595856,469.074829 105.192245,482.116669 106.884270,495.080200 
	C108.916451,510.649811 111.404755,526.168945 114.110710,541.637329 
	C115.268921,548.258118 117.060661,554.840820 119.282829,561.189392 
	C126.170090,580.865845 132.979385,600.589172 140.659012,619.961304 
	C145.267212,631.585693 151.430756,642.594666 156.933868,653.861328 
	C157.487198,654.994202 158.308258,655.996277 159.526611,657.854553 
	C161.646759,653.743774 163.283630,650.246826 165.203796,646.913025 
	C169.437363,639.562683 173.813843,632.294739 178.477081,624.945312 
	C172.531876,636.955750 166.241577,649.014038 159.336227,662.251404 
	C155.226501,654.541565 151.428345,647.836365 148.011627,640.942139 
	C110.305954,564.859863 96.844490,484.139252 102.019928,399.866364 
	C105.200645,348.074005 115.220116,297.536743 129.826584,247.834671 
	C130.825653,244.435165 132.033432,241.735092 135.782486,239.991547 
	C178.448624,220.149170 223.062607,206.431473 269.083435,197.055283 
	C275.773315,195.692307 282.502991,194.524826 289.618408,193.325806 
z"/>
<path fill="#51392E" opacity="1.000000" stroke="none" 
	d="
M630.433472,197.943649 
	C626.379578,193.747345 622.535828,189.862808 618.645935,186.024963 
	C611.554810,179.028625 610.136292,172.604492 614.159668,165.480438 
	C617.992493,158.693954 625.785950,155.815430 634.680725,158.959213 
	C640.080322,160.867661 644.977966,164.209549 650.075806,166.954483 
	C653.511047,168.804184 654.299438,171.256104 651.806641,174.560638 
	C650.731506,175.985870 649.977234,177.653168 649.018982,179.311188 
	C645.505981,176.640427 642.401001,173.901566 638.926941,171.761841 
	C636.281738,170.132584 633.247437,168.666168 630.234924,168.265579 
	C628.201904,167.995209 624.777710,169.145004 624.018555,170.673920 
	C623.113708,172.496048 623.672668,175.880676 624.896912,177.726318 
	C626.683655,180.419754 629.689270,182.283066 632.063354,184.614227 
	C634.668152,187.171921 637.449951,189.632568 639.614258,192.538025 
	C643.821289,198.185822 643.842285,204.358032 639.980164,210.242279 
	C636.232910,215.951538 630.676758,219.095459 624.173523,217.020645 
	C616.845520,214.682739 609.930847,210.965439 602.986572,207.543213 
	C599.326233,205.739334 598.063293,202.902985 601.050171,199.184036 
	C602.167175,197.793243 602.832458,196.039673 603.849670,194.185501 
	C607.283875,197.003326 610.422791,199.917084 613.910950,202.324829 
	C616.330017,203.994553 619.114319,205.388000 621.938843,206.165771 
	C628.190857,207.887344 631.394958,204.810669 630.433472,197.943649 
z"/>
<path fill="#52392F" opacity="1.000000" stroke="none" 
	d="
M504.730988,139.101746 
	C507.511383,153.678787 510.218842,167.834518 513.017334,182.466461 
	C511.118988,182.298370 509.694366,182.053772 508.272522,182.069000 
	C504.344666,182.111008 502.515961,180.467194 501.898010,176.343002 
	C500.521942,167.159348 500.282623,167.195175 491.377045,165.823074 
	C491.048431,165.772446 490.718903,165.727280 490.390930,165.672836 
	C480.028839,163.952271 479.812408,163.844604 475.175323,173.180496 
	C472.098724,179.374573 467.874084,174.771286 462.885590,175.607727 
	C465.879272,170.037033 468.336151,165.462982 470.795105,160.890060 
	C477.087372,149.188278 483.422791,137.509369 489.639709,125.767708 
	C490.970917,123.253448 492.121002,121.376167 495.600830,122.254196 
	C498.959900,123.101753 502.501099,122.843185 502.701019,127.906097 
	C502.843628,131.517685 503.970428,135.090378 504.730988,139.101746 
M495.593384,157.143585 
	C496.417358,156.544388 498.017914,155.827133 497.947510,155.363892 
	C497.059113,149.519470 495.929779,143.711670 494.605255,136.495728 
	C490.816284,143.662964 487.779022,149.408295 484.567810,155.482666 
	C488.497803,156.068893 491.594940,156.530884 495.593384,157.143585 
z"/>
<path fill="#52392F" opacity="1.000000" stroke="none" 
	d="
M327.034058,148.820740 
	C331.317139,157.259155 335.430573,165.365356 339.815216,174.006058 
	C337.181396,174.369720 335.218414,174.492828 333.330811,174.936569 
	C330.602386,175.577957 329.212280,174.663330 327.964417,172.077698 
	C323.427551,162.677063 323.308838,162.721222 313.070496,163.927094 
	C309.774506,164.315277 306.488434,164.787933 302.959717,165.253342 
	C302.287872,168.248199 301.265839,171.123276 301.073883,174.052734 
	C300.784668,178.465958 298.505585,180.042786 294.440277,179.991287 
	C293.144379,179.974884 291.845581,180.191681 289.870819,180.359253 
	C291.609528,172.180832 293.227570,164.447067 294.901611,156.725464 
	C297.192963,146.156662 299.895874,135.659058 301.684967,125.007088 
	C302.564056,119.773209 306.293518,121.431519 309.066498,120.461395 
	C312.064392,119.412590 313.138580,121.243378 314.261932,123.515442 
	C318.394318,131.873642 322.653137,140.169312 327.034058,148.820740 
M305.843872,151.163040 
	C305.646912,152.535873 305.449982,153.908707 305.190582,155.716873 
	C309.921814,155.062347 314.074127,154.487900 318.883301,153.822586 
	C315.674652,147.417206 312.826569,141.731644 309.406525,134.904282 
	C308.055115,140.990707 307.014252,145.678406 305.843872,151.163040 
z"/>
<path fill="#C6424B" opacity="1.000000" stroke="none" 
	d="
M352.406677,256.641663 
	C352.719604,256.036926 353.467194,255.077927 354.219208,255.074402 
	C378.134766,254.962540 402.053497,254.718353 425.965515,255.007874 
	C437.391144,255.146179 448.829834,256.052124 460.213867,257.126709 
	C467.743713,257.837463 475.175262,259.544220 482.672089,260.662079 
	C490.847229,261.881042 499.159637,262.415558 507.213837,264.162842 
	C527.433777,268.549408 547.607483,273.192657 567.663269,278.271820 
	C575.967224,280.374817 583.940002,283.806030 592.032654,286.718475 
	C604.474426,291.196045 616.996094,295.479462 629.278503,300.361908 
	C637.362000,303.575256 645.110107,307.643738 652.960266,311.429077 
	C659.130859,314.404541 665.227722,317.532593 672.025391,320.926422 
	C671.065979,315.418121 670.457336,310.385773 669.286743,305.487762 
	C665.596252,290.045807 661.809937,274.624237 657.799744,259.262909 
	C656.717407,255.116806 655.126404,250.969238 652.977905,247.283401 
	C651.569397,244.867004 649.023804,242.725555 646.492004,241.427139 
	C639.865173,238.028702 633.063416,234.918915 626.151184,232.142776 
	C617.717102,228.755417 609.186768,225.555496 600.542419,222.754791 
	C582.762695,216.994263 564.875793,211.564865 547.048218,205.950638 
	C546.010681,205.623886 545.109314,204.864655 544.039429,203.994843 
	C557.843384,207.612442 572.047302,210.731079 585.594543,215.656006 
	C607.476074,223.610748 628.945251,232.705399 650.520386,241.486176 
	C652.284058,242.203949 654.303772,243.936508 654.893127,245.648911 
	C663.571411,270.861053 669.878967,296.685364 674.783875,324.287994 
	C573.160156,271.711914 466.026184,249.545959 352.406677,256.641663 
z"/>
<path fill="#52392F" opacity="1.000000" stroke="none" 
	d="
M534.866943,141.806610 
	C532.026855,140.272491 529.148438,139.052017 526.196960,138.045578 
	C524.330078,137.408981 522.354309,137.091705 519.752502,136.469925 
	C520.433655,133.254822 521.093933,130.138290 521.858154,126.531296 
	C535.851013,129.719223 549.399475,132.805878 563.428284,136.001984 
	C562.701843,139.428604 562.064453,142.435226 561.336548,145.868683 
	C555.968445,144.755157 550.992554,143.723007 545.570618,142.598312 
	C542.061096,157.826889 538.638855,172.676590 535.107666,187.999191 
	C531.704956,187.243973 528.539185,186.541321 524.875549,185.728180 
	C528.242310,170.961929 531.520020,156.586395 534.866943,141.806610 
z"/>
<path fill="#51392F" opacity="1.000000" stroke="none" 
	d="
M352.112244,172.398056 
	C351.072266,157.222076 350.169189,142.439499 349.245880,127.325073 
	C343.794708,127.325073 338.594452,127.325073 333.038208,127.325073 
	C333.038208,124.121246 333.038208,121.040886 333.038208,117.555794 
	C346.977997,116.702599 360.861176,115.852867 374.992767,114.987923 
	C375.269409,118.423325 375.506744,121.370689 375.806488,125.093246 
	C370.451202,125.468269 365.416718,125.820824 359.749481,126.217690 
	C360.676941,141.743195 361.585419,156.951126 362.531708,172.791443 
	C358.926086,172.791443 355.587616,172.791443 352.112244,172.398056 
z"/>
<path fill="#C6424B" opacity="1.000000" stroke="none" 
	d="
M410.273071,400.761047 
	C410.713074,399.615753 411.252228,397.998596 412.339996,397.428772 
	C418.622528,394.137817 425.015442,391.054291 431.407074,387.975494 
	C442.338043,382.710144 453.091064,377.003510 464.292053,372.388062 
	C479.505493,366.119232 495.036713,360.611450 510.498474,354.959991 
	C518.062256,352.195343 525.709900,349.612457 533.441711,347.367920 
	C541.652649,344.984314 550.002380,343.075592 558.302429,341.003357 
	C565.037048,339.321930 571.730835,337.400360 578.544006,336.126953 
	C590.733704,333.848694 603.000244,331.982239 615.230957,329.921356 
	C615.670898,329.847229 616.071228,329.537781 617.628052,328.795105 
	C613.251770,326.924316 609.714355,325.298553 606.094727,323.883026 
	C581.028809,314.080597 555.248535,306.511688 529.025757,300.668488 
	C512.579773,297.003906 495.849274,294.505127 479.160309,292.074799 
	C464.443420,289.931610 449.606049,288.617035 434.826874,286.893707 
	C434.240112,286.825256 433.704926,286.314148 433.010284,285.643280 
	C448.772949,286.807892 464.743683,287.807098 480.555542,289.968506 
	C528.298035,296.494690 574.465454,309.127319 619.205872,326.995178 
	C620.869019,327.659332 622.461548,328.500214 625.399597,329.871338 
	C548.433838,340.172607 477.291290,363.764130 410.273071,400.761047 
z"/>
<path fill="#C6424B" opacity="1.000000" stroke="none" 
	d="
M208.923676,340.351562 
	C208.572937,347.324127 208.082977,354.635071 207.474594,361.936127 
	C206.959900,368.112854 206.308090,374.278107 205.642120,381.229462 
	C252.447952,367.729706 298.631805,357.299469 346.339905,355.386993 
	C347.038513,355.358978 347.786774,356.571136 349.046204,357.671204 
	C342.581970,361.619537 336.377380,365.203400 330.391144,369.120880 
	C323.787750,373.442230 317.415985,378.116180 310.871460,382.530060 
	C309.305267,383.586426 307.454498,384.220856 305.350464,385.019653 
	C316.242157,377.088135 327.514893,369.181946 338.797119,361.289337 
	C340.491241,360.104218 342.230103,358.983093 343.702515,357.239838 
	C296.050720,360.429443 249.633759,369.544342 202.747284,384.168396 
	C204.851776,368.880859 206.792450,354.783264 208.923676,340.351562 
z"/>
<path fill="#C6424B" opacity="1.000000" stroke="none" 
	d="
M430.617676,285.063354 
	C429.424255,285.470673 427.829773,285.997894 426.247986,285.962036 
	C415.967255,285.729309 405.673553,284.859070 395.413940,285.173065 
	C377.543915,285.720001 359.624359,286.279877 341.855988,288.104492 
	C319.689697,290.380737 297.562317,293.394928 275.594604,297.128632 
	C259.031555,299.943726 242.740829,304.368896 226.342743,308.137634 
	C224.126602,308.646973 221.650330,309.044556 219.907135,310.326782 
	C217.844727,311.843781 215.577454,314.024414 214.936691,316.342438 
	C213.449066,321.724091 212.969635,327.377594 211.898224,332.885223 
	C211.564850,334.598999 210.643005,336.198334 209.649399,337.948975 
	C210.767151,329.529724 211.976089,320.954590 213.892807,312.540741 
	C214.282791,310.828796 217.156982,308.915131 219.190918,308.461365 
	C246.641190,302.337433 273.974426,295.445984 301.676788,290.752167 
	C342.527832,283.830444 383.844910,282.515930 425.239716,284.540100 
	C426.902893,284.621429 428.561646,284.793213 430.617676,285.063354 
z"/>
<path fill="#C6424B" opacity="1.000000" stroke="none" 
	d="
M198.588715,483.794434 
	C196.883698,486.876465 195.149536,490.144897 192.907059,493.016388 
	C188.356247,498.843658 183.530472,504.456207 177.685013,511.527985 
	C176.221756,506.332794 174.588928,502.560760 174.149323,498.654419 
	C170.631348,467.393402 170.091141,435.978210 171.279434,404.610565 
	C171.947266,386.981781 174.587250,369.395966 176.949814,351.873169 
	C178.826172,337.956482 181.603058,324.160095 184.057510,310.323975 
	C184.368362,308.571747 185.149033,306.902832 186.019653,305.060059 
	C184.206757,317.195099 181.983978,329.448761 179.983978,341.738647 
	C172.652649,386.789093 170.460907,432.066559 174.331009,477.582184 
	C175.049973,486.037781 176.107468,494.464935 177.046860,502.901001 
	C177.202255,504.296387 177.554840,505.669800 178.033203,508.201202 
	C184.718796,500.049133 190.685196,492.774048 197.045776,485.137817 
	C197.738693,484.583954 197.870377,484.310760 197.835022,483.957031 
	C197.999863,483.905121 198.164719,483.853180 198.588715,483.794434 
z"/>
<path fill="#C6424B" opacity="1.000000" stroke="none" 
	d="
M493.640564,192.935944 
	C487.163574,192.643387 480.340485,192.289215 473.545135,191.642944 
	C465.659180,190.892944 457.818909,189.497528 449.921417,189.065704 
	C427.769470,187.854492 405.588470,186.027283 383.437286,186.251938 
	C358.174072,186.508163 332.884979,188.098068 307.907806,192.713333 
	C302.921295,193.634735 297.721344,193.401077 292.318726,193.448196 
	C306.680176,191.207169 321.295471,188.722229 336.013824,187.318375 
	C387.650238,182.393219 439.126312,184.017792 490.377655,192.131210 
	C491.361725,192.287003 492.330719,192.538391 493.640564,192.935944 
z"/>
<path fill="#C6424B" opacity="1.000000" stroke="none" 
	d="
M193.316101,287.869385 
	C195.574631,286.424927 198.069519,284.459259 200.895920,283.646515 
	C217.225861,278.950928 233.489700,273.880035 250.054749,270.186829 
	C268.049438,266.174957 286.296570,263.187073 304.532990,260.403839 
	C317.739624,258.388306 331.107086,257.423035 344.407257,256.031982 
	C345.373627,255.930893 346.376312,256.176910 347.682037,256.514404 
	C322.293488,260.330872 296.336182,262.664215 270.945648,267.799805 
	C244.910202,273.065826 219.429230,281.073151 193.316101,287.869385 
z"/>
<path fill="#C6424B" opacity="1.000000" stroke="none" 
	d="
M248.594086,530.223511 
	C250.357498,527.240173 252.031998,523.751709 254.583893,521.111145 
	C264.603912,510.743256 274.888336,500.630402 285.122894,490.471466 
	C285.765289,489.833801 286.820343,489.611755 288.035889,489.338989 
	C278.631622,499.401398 268.854034,509.300690 259.129456,519.251892 
	C255.656281,522.805969 252.311615,526.485657 248.594086,530.223511 
z"/>
<path fill="#C6424B" opacity="1.000000" stroke="none" 
	d="
M297.498932,481.184326 
	C298.092102,474.691650 304.431641,473.050964 308.403595,469.451782 
	C316.199493,462.387573 324.763580,456.169067 333.055145,449.658325 
	C333.642242,449.197388 334.600250,449.208862 335.761108,449.055420 
	C323.370697,459.779694 310.604980,470.449188 297.498932,481.184326 
z"/>
<path fill="#C6424B" opacity="1.000000" stroke="none" 
	d="
M541.771240,202.907379 
	C540.338928,203.355469 538.518738,204.028305 536.891968,203.710617 
	C524.163330,201.225037 511.465729,198.578079 498.780884,195.876068 
	C497.802338,195.667618 496.994232,194.659134 496.031799,193.665558 
	C511.128784,196.430130 526.300903,199.551666 541.771240,202.907379 
z"/>
<path fill="#C6424B" opacity="1.000000" stroke="none" 
	d="
M346.708984,441.364044 
	C351.746460,436.984192 356.939636,432.288269 362.555084,428.167786 
	C368.271881,423.973022 374.381042,420.307953 380.383667,416.514221 
	C381.147217,416.031708 382.305359,416.173553 383.664795,416.082031 
	C371.715942,424.525421 359.382996,432.912964 346.708984,441.364044 
z"/>
<path fill="#C6424B" opacity="1.000000" stroke="none" 
	d="
M209.500992,578.395264 
	C210.860229,575.304749 212.086441,571.704102 214.307159,568.887451 
	C218.834229,563.145508 223.897217,557.826050 229.095825,552.398071 
	C222.907486,561.055664 216.362778,569.647766 209.500992,578.395264 
z"/>
<path fill="#C6424B" opacity="1.000000" stroke="none" 
	d="
M384.480530,416.034546 
	C385.120148,414.875244 385.875549,413.307129 387.123535,412.522644 
	C393.315308,408.630737 399.621582,404.919220 405.936096,401.227264 
	C406.581970,400.849609 407.551544,401.025574 408.772736,400.986633 
	C401.057526,406.014801 392.940491,411.000916 384.480530,416.034546 
z"/>
<path fill="#C6424B" opacity="1.000000" stroke="none" 
	d="
M179.471619,624.244385 
	C180.403885,621.424988 181.270172,618.203613 182.937485,615.471008 
	C185.912384,610.595398 189.370972,606.014893 192.981140,601.272095 
	C188.812164,608.843018 184.289352,616.452759 179.471619,624.244385 
z"/>
<path fill="#C6424B" opacity="1.000000" stroke="none" 
	d="
M293.200012,393.669861 
	C293.529602,394.217712 293.805786,395.207153 293.505737,395.433868 
	C288.456360,399.248322 283.335175,402.967712 277.886719,406.518372 
	C282.655151,402.137817 287.766785,397.947144 293.200012,393.669861 
z"/>
<path fill="#C6424B" opacity="1.000000" stroke="none" 
	d="
M232.176575,447.492554 
	C229.277893,454.623993 223.333710,459.232056 217.107025,463.846527 
	C216.828705,463.447479 216.911240,463.113495 217.324615,462.411987 
	C217.853638,461.738831 218.051804,461.433136 218.249969,461.127441 
	C218.785202,460.639801 219.320435,460.152191 220.269836,459.292725 
	C221.466064,457.954346 222.248108,456.987823 223.030151,456.021301 
	C223.329559,455.890930 223.578842,455.696350 224.154999,455.179504 
	C224.684601,454.616608 224.837189,454.311768 224.989792,454.006958 
	C224.989792,454.006958 225.003342,454.002899 225.252075,453.932495 
	C225.660141,453.575867 225.819504,453.289642 225.978867,453.003387 
	C225.978867,453.003387 226.004883,453.004883 226.255859,452.931763 
	C226.676163,452.572479 226.845505,452.286316 227.014862,452.000122 
	C227.313354,451.854309 227.557999,451.645416 228.110596,451.097961 
	C228.780685,450.626770 228.937851,450.346405 228.943970,449.981354 
	C228.943970,449.981354 228.998917,449.999603 229.230225,449.907593 
	C229.759811,449.609009 229.908463,449.324280 229.907455,448.961456 
	C229.907455,448.961456 229.979218,448.985199 230.226318,448.902954 
	C230.629639,448.539276 230.785858,448.257812 230.942078,447.976349 
	C231.263901,447.817810 231.585724,447.659241 232.176575,447.492554 
z"/>
<path fill="#C6424B" opacity="1.000000" stroke="none" 
	d="
M236.615631,544.181396 
	C236.276962,543.501282 235.880585,542.362183 236.265427,541.946777 
	C239.968597,537.949402 243.803345,534.073914 247.961014,530.246582 
	C244.521194,534.905823 240.720795,539.481995 236.615631,544.181396 
z"/>
<path fill="#C6424B" opacity="1.000000" stroke="none" 
	d="
M187.000244,302.668121 
	C187.481705,298.289490 188.082642,293.589172 189.001602,288.951874 
	C189.107193,288.419098 190.987350,288.237976 192.435638,287.898407 
	C191.515076,290.336884 189.971390,292.678955 188.961746,295.232208 
	C188.069931,297.487549 187.773529,299.978333 187.000244,302.668121 
z"/>
<path fill="#C6424B" opacity="1.000000" stroke="none" 
	d="
M193.612061,601.160339 
	C195.773041,597.274109 198.242493,593.265015 201.080139,589.391357 
	C198.939056,593.363708 196.429794,597.200623 193.612061,601.160339 
z"/>
<path fill="#C6424B" opacity="1.000000" stroke="none" 
	d="
M304.650024,385.023621 
	C303.382416,390.258087 298.584442,391.682159 293.962830,393.635101 
	C297.169556,390.700562 300.738586,387.890594 304.650024,385.023621 
z"/>
<path fill="#C6424B" opacity="1.000000" stroke="none" 
	d="
M265.254089,417.315826 
	C263.842316,422.019104 260.490936,424.674957 255.536194,426.092407 
	C255.094925,426.080627 254.920670,425.919281 254.951416,425.692688 
	C254.982178,425.466095 255.012756,425.009796 255.012756,425.009796 
	C256.281372,423.943237 257.549957,422.876678 259.309570,421.451263 
	C261.209137,419.737061 262.617676,418.381714 264.026184,417.026337 
	C264.026184,417.026337 264.000000,417.000000 264.256836,417.029205 
	C264.513641,417.058411 265.005310,417.005859 265.069641,417.081635 
	C265.133942,417.157410 265.254089,417.315826 265.254089,417.315826 
z"/>
<path fill="#F6D9D4" opacity="1.000000" stroke="none" 
	d="
M200.205017,481.159821 
	C200.748474,478.611877 201.291916,476.063934 201.888748,473.265808 
	C203.197433,473.172028 204.629089,473.069427 206.557312,473.010498 
	C207.053879,473.054199 207.262146,473.259766 207.177460,473.525543 
	C206.999741,474.146820 206.906677,474.502350 206.813629,474.857849 
	C206.813629,474.857849 206.916443,474.994965 206.596283,475.011719 
	C205.833878,475.673920 205.391647,476.319336 204.949417,476.964783 
	C204.949432,476.964783 204.998917,477.000031 204.689438,477.053558 
	C203.911865,477.738251 203.443756,478.369415 202.975647,479.000580 
	C202.975647,479.000580 203.004974,479.004730 202.750885,479.067200 
	C202.358231,479.437286 202.219650,479.744873 202.081085,480.052460 
	C202.081085,480.052460 201.995422,480.016663 201.772186,480.135529 
	C201.100967,480.556213 200.653000,480.858032 200.205017,481.159821 
z"/>
<path fill="#C6424B" opacity="1.000000" stroke="none" 
	d="
M201.770340,589.300049 
	C203.728043,585.962769 205.980515,582.484863 208.601410,578.987549 
	C206.668243,582.365234 204.366684,585.762329 201.770340,589.300049 
z"/>
<path fill="#C6424B" opacity="1.000000" stroke="none" 
	d="
M288.722351,489.308960 
	C291.103699,486.650085 293.799896,483.881622 296.862671,481.155884 
	C294.498566,483.865509 291.767883,486.532440 288.722351,489.308960 
z"/>
<path fill="#C6424B" opacity="1.000000" stroke="none" 
	d="
M337.565948,448.201599 
	C340.032166,445.918213 342.836731,443.569916 346.001648,441.333069 
	C343.542786,443.675232 340.723541,445.905945 337.565948,448.201599 
z"/>
<path fill="#C6424B" opacity="1.000000" stroke="none" 
	d="
M229.827423,552.261353 
	C231.552338,549.639099 233.570358,546.895264 235.952484,544.226562 
	C234.251251,546.914429 232.185913,549.527039 229.827423,552.261353 
z"/>
<path fill="#C6424B" opacity="1.000000" stroke="none" 
	d="
M277.077454,406.517822 
	C277.513336,411.060608 273.262848,411.737732 270.174866,413.782043 
	C269.523712,413.510406 269.402191,413.384857 269.426453,413.059204 
	C269.814056,412.604675 269.925842,412.302216 269.907532,411.951691 
	C269.907532,411.951691 269.979248,411.981537 270.225708,411.904694 
	C270.664368,411.560394 270.856598,411.292938 271.048828,411.025482 
	C271.369293,410.952576 271.628815,410.785217 272.216858,410.266541 
	C272.814331,409.716888 273.022461,409.424103 273.230560,409.131317 
	C274.411926,408.278351 275.593292,407.425354 277.077454,406.517822 
z"/>
<path fill="#C6424B" opacity="1.000000" stroke="none" 
	d="
M215.530334,464.758728 
	C216.159225,469.370422 212.595337,470.850616 209.142181,472.411377 
	C208.915283,471.793060 209.000061,471.430908 209.084839,471.068726 
	C209.084839,471.068726 209.013733,470.996826 209.280563,470.949524 
	C209.694016,470.602539 209.840637,470.302917 209.987274,470.003265 
	C209.987274,470.003265 210.002441,470.002441 210.255798,469.936462 
	C210.678772,469.584686 210.848373,469.298889 211.017975,469.013062 
	C211.334061,468.881439 211.581055,468.669312 212.161316,468.059265 
	C213.196533,466.922424 213.829346,466.103088 214.462158,465.283722 
	C214.749344,465.133789 215.024796,464.964722 215.530334,464.758728 
z"/>
<path fill="#C6424B" opacity="1.000000" stroke="none" 
	d="
M247.368988,432.770508 
	C245.505554,435.030334 243.315750,437.348236 240.750244,439.608582 
	C240.374527,439.551025 240.228928,439.204254 240.497986,438.883423 
	C240.840790,438.375824 240.914520,438.189056 240.988235,438.002258 
	C243.006363,436.277710 245.024490,434.553131 247.368988,432.770508 
z"/>
<path fill="#F6D9D4" opacity="1.000000" stroke="none" 
	d="
M263.640381,417.012756 
	C262.617676,418.381714 261.209137,419.737061 259.486603,421.194122 
	C258.612427,418.038727 260.785400,417.378235 263.640381,417.012756 
z"/>
<path fill="#F6D9D4" opacity="1.000000" stroke="none" 
	d="
M249.681122,430.912811 
	C249.681122,430.912811 249.303925,430.939667 249.123581,430.883118 
	C249.944290,429.567413 250.945358,428.308289 252.018097,427.580750 
	C251.918228,428.526886 251.746689,428.941467 251.575150,429.356049 
	C251.575150,429.356049 251.552612,429.465240 251.213470,429.527039 
	C250.476593,430.030151 250.078857,430.471466 249.681122,430.912811 
z"/>
<path fill="#C6424B" opacity="1.000000" stroke="none" 
	d="
M251.919434,429.536896 
	C251.746689,428.941467 251.918228,428.526886 252.152145,427.887543 
	C252.686554,427.250916 253.158585,426.839081 254.040863,426.189026 
	C254.451126,425.950775 254.920670,425.919281 254.920670,425.919281 
	C254.920670,425.919281 255.094925,426.080627 255.187668,426.158447 
	C254.274841,427.396790 253.269272,428.557281 251.919434,429.536896 
z"/>
<path fill="#C6424B" opacity="1.000000" stroke="none" 
	d="
M269.826874,413.824860 
	C268.650208,415.062012 267.291870,416.110229 265.593811,417.237152 
	C265.254089,417.315826 265.133942,417.157410 265.136658,416.853394 
	C265.139404,416.549377 265.141052,416.073669 265.141052,416.073669 
	C265.427979,415.970337 265.674713,415.806458 266.257690,415.326416 
	C266.827301,414.779114 267.020477,414.487457 267.213654,414.195801 
	C267.213654,414.195801 267.070923,414.233276 267.426086,414.170593 
	C268.281097,413.825073 268.780884,413.542175 269.280701,413.259308 
	C269.402191,413.384857 269.523712,413.510406 269.826874,413.824860 
z"/>
<path fill="#C6424B" opacity="1.000000" stroke="none" 
	d="
M200.198395,481.141571 
	C200.653000,480.858032 201.100967,480.556213 201.809570,480.163483 
	C201.237091,481.370758 200.403961,482.668945 199.180115,483.906708 
	C198.860596,483.500061 198.931778,483.153870 199.328278,482.439453 
	C199.829346,481.762238 200.005096,481.453247 200.180847,481.144257 
	C200.180832,481.144257 200.191772,481.123322 200.198395,481.141571 
z"/>
<path fill="#C6424B" opacity="1.000000" stroke="none" 
	d="
M238.223999,442.249146 
	C237.105530,443.510834 235.987076,444.772522 234.463043,446.041931 
	C234.057480,446.049622 233.878159,445.875916 233.916351,445.654358 
	C233.954529,445.432831 233.952240,444.983215 233.952240,444.983215 
	C233.952240,444.983215 234.000870,445.001251 234.240540,444.920166 
	C234.636917,444.553436 234.793640,444.267761 234.950363,443.982086 
	C235.270065,443.858490 235.533722,443.660339 236.109711,443.113586 
	C236.640289,442.556793 236.802475,442.274017 236.964630,441.991241 
	C236.964630,441.991241 237.001785,442.003387 237.225418,441.987915 
	C237.449051,441.972473 237.902893,441.904846 237.984314,441.989868 
	C238.065720,442.074860 238.223999,442.249146 238.223999,442.249146 
z"/>
<path fill="#F6D9D4" opacity="1.000000" stroke="none" 
	d="
M222.649811,456.015442 
	C222.248108,456.987823 221.466064,457.954346 220.392303,459.045532 
	C220.823563,458.116638 221.546509,457.063141 222.649811,456.015442 
z"/>
<path fill="#F6D9D4" opacity="1.000000" stroke="none" 
	d="
M269.426453,413.059204 
	C268.780884,413.542175 268.281097,413.825073 267.500732,414.165161 
	C267.877167,413.467590 268.534180,412.712830 269.549347,411.954895 
	C269.925842,412.302216 269.814056,412.604675 269.426453,413.059204 
z"/>
<path fill="#F6D9D4" opacity="1.000000" stroke="none" 
	d="
M214.090393,465.238770 
	C213.829346,466.103088 213.196533,466.922424 212.264236,467.834229 
	C212.549393,467.015686 213.134018,466.104736 214.090393,465.238770 
z"/>
<path fill="#F6D9D4" opacity="1.000000" stroke="none" 
	d="
M208.764648,471.079346 
	C209.000061,471.430908 208.915283,471.793060 208.796326,472.434052 
	C208.762131,472.712860 208.792130,472.731232 208.523865,472.787048 
	C207.924438,472.981812 207.593292,473.120758 207.262146,473.259766 
	C207.262146,473.259766 207.053879,473.054199 206.948456,472.950745 
	C207.376831,472.261536 207.910645,471.675751 208.764648,471.079346 
z"/>
<path fill="#C6424B" opacity="1.000000" stroke="none" 
	d="
M234.149170,446.134338 
	C233.833313,446.696472 233.425781,447.173859 232.692017,447.587402 
	C232.365799,447.523590 232.211273,447.189209 232.473663,446.864594 
	C232.797638,446.349670 232.859222,446.159363 232.920792,445.969086 
	C232.920792,445.969086 232.990524,445.986053 233.207550,445.955627 
	C233.424561,445.925232 233.878159,445.875916 233.878159,445.875916 
	C233.878159,445.875916 234.057480,446.049622 234.149170,446.134338 
z"/>
<path fill="#C6424B" opacity="1.000000" stroke="none" 
	d="
M239.366470,440.302612 
	C239.301010,440.919403 239.064041,441.454865 238.525543,442.119751 
	C238.223999,442.249146 238.065720,442.074860 238.007019,441.757751 
	C237.948303,441.440643 237.926346,440.974457 237.926346,440.974457 
	C237.926346,440.974457 237.991959,440.993134 238.265411,440.863525 
	C238.631165,440.556976 238.723465,440.380096 238.815750,440.203186 
	C238.815750,440.203186 239.194962,440.221313 239.366470,440.302612 
z"/>
<path fill="#C6424B" opacity="1.000000" stroke="none" 
	d="
M240.186813,439.640442 
	C240.320068,439.925385 240.239731,440.252502 239.873413,440.500671 
	C239.565231,440.096710 239.693817,439.850372 240.186813,439.640442 
z"/>
<path fill="#F6D9D4" opacity="1.000000" stroke="none" 
	d="
M236.732224,442.068848 
	C236.802475,442.274017 236.640289,442.556793 236.230255,442.894714 
	C236.033081,442.603638 236.205551,442.335815 236.732224,442.068848 
z"/>
<path fill="#F6D9D4" opacity="1.000000" stroke="none" 
	d="
M199.899628,481.213501 
	C200.005096,481.453247 199.829346,481.762238 199.403992,482.180481 
	C199.309067,481.954071 199.463730,481.618408 199.899628,481.213501 
z"/>
<path fill="#F6D9D4" opacity="1.000000" stroke="none" 
	d="
M197.623230,484.043823 
	C197.870377,484.310760 197.738693,484.583954 197.212250,484.845947 
	C197.009705,484.589996 197.152008,484.328461 197.623230,484.043823 
z"/>
<path fill="#F6D9D4" opacity="1.000000" stroke="none" 
	d="
M237.693970,441.054260 
	C237.926346,440.974457 237.948303,441.440643 237.925598,441.672729 
	C237.902893,441.904846 237.449051,441.972473 237.219696,441.969269 
	C237.015976,441.614258 237.173050,441.336914 237.693970,441.054260 
z"/>
<path fill="#F6D9D4" opacity="1.000000" stroke="none" 
	d="
M270.804382,411.080200 
	C270.856598,411.292938 270.664368,411.560394 270.217957,411.866638 
	C270.162537,411.648590 270.361237,411.391754 270.804382,411.080200 
z"/>
<path fill="#F6D9D4" opacity="1.000000" stroke="none" 
	d="
M238.651337,440.184082 
	C238.723465,440.380096 238.631165,440.556976 238.255798,440.830780 
	C238.144119,440.673462 238.315521,440.419220 238.651337,440.184082 
z"/>
<path fill="#F6D9D4" opacity="1.000000" stroke="none" 
	d="
M240.817047,438.011658 
	C240.914520,438.189056 240.840790,438.375824 240.496613,438.695404 
	C240.366074,438.559143 240.505966,438.290100 240.817047,438.011658 
z"/>
<path fill="#C6424B" opacity="1.000000" stroke="none" 
	d="
M248.602402,431.596283 
	C248.731094,431.893524 248.548050,432.278961 248.035126,432.715698 
	C247.900406,432.406158 248.095535,432.045319 248.602402,431.596283 
z"/>
<path fill="#F6D9D4" opacity="1.000000" stroke="none" 
	d="
M254.951416,425.692688 
	C254.920670,425.919281 254.451126,425.950775 254.216827,425.928467 
	C254.032410,425.551697 254.215317,425.290253 254.772003,425.065857 
	C255.012756,425.009796 254.982178,425.466095 254.951416,425.692688 
z"/>
<path fill="#F6D9D4" opacity="1.000000" stroke="none" 
	d="
M264.887268,416.140442 
	C265.141052,416.073669 265.139404,416.549377 265.072357,416.777618 
	C265.005310,417.005859 264.513641,417.058411 264.266846,417.044403 
	C264.224518,416.755981 264.429016,416.481567 264.887268,416.140442 
z"/>
<path fill="#F6D9D4" opacity="1.000000" stroke="none" 
	d="
M266.935608,414.233917 
	C267.020477,414.487457 266.827301,414.779114 266.369141,415.132355 
	C266.288635,414.886627 266.473083,414.579346 266.935608,414.233917 
z"/>
<path fill="#F6D9D4" opacity="1.000000" stroke="none" 
	d="
M230.713318,448.052216 
	C230.785858,448.257812 230.629639,448.539276 230.217957,448.866089 
	C230.022629,448.574463 230.196640,448.313324 230.713318,448.052216 
z"/>
<path fill="#F6D9D4" opacity="1.000000" stroke="none" 
	d="
M234.720276,444.063934 
	C234.793640,444.267761 234.636917,444.553436 234.232208,444.895630 
	C234.030624,444.606598 234.199280,444.337830 234.720276,444.063934 
z"/>
<path fill="#F6D9D4" opacity="1.000000" stroke="none" 
	d="
M209.746918,470.095398 
	C209.840637,470.302917 209.694016,470.602539 209.306000,470.993042 
	C209.211929,470.785126 209.359253,470.486359 209.746918,470.095398 
z"/>
<path fill="#F6D9D4" opacity="1.000000" stroke="none" 
	d="
M210.777359,469.089111 
	C210.848373,469.298889 210.678772,469.584686 210.256165,469.928894 
	C210.181015,469.713226 210.358887,469.439178 210.777359,469.089111 
z"/>
<path fill="#F6D9D4" opacity="1.000000" stroke="none" 
	d="
M233.916351,445.654358 
	C233.878159,445.875916 233.424561,445.925232 233.196472,445.921509 
	C233.003616,445.564148 233.174179,445.296906 233.716156,445.049622 
	C233.952240,444.983215 233.954529,445.432831 233.916351,445.654358 
z"/>
<path fill="#F6D9D4" opacity="1.000000" stroke="none" 
	d="
M232.756012,445.992493 
	C232.859222,446.159363 232.797638,446.349670 232.470871,446.680450 
	C232.124893,446.454712 232.253418,446.186371 232.756012,445.992493 
z"/>
<path fill="#C6424B" opacity="1.000000" stroke="none" 
	d="
M216.529739,463.792847 
	C216.653900,464.085205 216.493591,464.419800 216.037537,464.781067 
	C215.909622,464.483521 216.077454,464.159302 216.529739,463.792847 
z"/>
<path fill="#F6D9D4" opacity="1.000000" stroke="none" 
	d="
M217.955734,461.187592 
	C218.051804,461.433136 217.853638,461.738831 217.402649,462.160400 
	C217.320389,461.933472 217.490936,461.590607 217.955734,461.187592 
z"/>
<path fill="#F6D9D4" opacity="1.000000" stroke="none" 
	d="
M224.752396,454.092133 
	C224.837189,454.311768 224.684601,454.616608 224.272644,454.971252 
	C224.180527,454.739838 224.347763,454.458588 224.752396,454.092133 
z"/>
<path fill="#F6D9D4" opacity="1.000000" stroke="none" 
	d="
M225.743713,453.083435 
	C225.819504,453.289642 225.660141,453.575867 225.253662,453.925659 
	C225.042801,453.634277 225.210144,453.359039 225.743713,453.083435 
z"/>
<path fill="#F6D9D4" opacity="1.000000" stroke="none" 
	d="
M226.775848,452.079407 
	C226.845505,452.286316 226.676163,452.572479 226.255127,452.918762 
	C226.181229,452.705444 226.359024,452.432037 226.775848,452.079407 
z"/>
<path fill="#F6D9D4" opacity="1.000000" stroke="none" 
	d="
M228.715271,450.063171 
	C228.937851,450.346405 228.780685,450.626770 228.231079,450.886719 
	C228.032181,450.606384 228.197800,450.337708 228.715271,450.063171 
z"/>
<path fill="#F6D9D4" opacity="1.000000" stroke="none" 
	d="
M272.958923,409.186279 
	C273.022461,409.424103 272.814331,409.716888 272.334473,410.062561 
	C272.270905,409.824036 272.479095,409.532654 272.958923,409.186279 
z"/>
<path fill="#F6D9D4" opacity="1.000000" stroke="none" 
	d="
M229.682526,449.047668 
	C229.908463,449.324280 229.759811,449.609009 229.221069,449.880127 
	C229.020477,449.604340 229.179474,449.334076 229.682526,449.047668 
z"/>
<path fill="#C6424B" opacity="1.000000" stroke="none" 
	d="
M336.351868,449.121490 
	C336.276886,448.850403 336.487152,448.552460 336.980957,448.227234 
	C337.055359,448.498169 336.846252,448.796387 336.351868,449.121490 
z"/>
<path fill="#C6424B" opacity="1.000000" stroke="none" 
	d="
M207.177460,473.525513 
	C207.593292,473.120758 207.924438,472.981812 208.521942,472.803406 
	C208.367142,473.469879 207.945999,474.175812 207.169235,474.869781 
	C206.906677,474.502350 206.999741,474.146820 207.177460,473.525513 
z"/>
<path fill="#C6424B" opacity="1.000000" stroke="none" 
	d="
M203.311310,478.985229 
	C203.443756,478.369415 203.911865,477.738251 204.671814,477.028870 
	C204.524765,477.623718 204.085861,478.296783 203.311310,478.985229 
z"/>
<path fill="#C6424B" opacity="1.000000" stroke="none" 
	d="
M205.291458,476.954712 
	C205.391647,476.319336 205.833878,475.673920 206.563812,474.932434 
	C206.445526,475.539124 206.039520,476.241882 205.291458,476.954712 
z"/>
<path fill="#C6424B" opacity="1.000000" stroke="none" 
	d="
M250.036255,430.927979 
	C250.078857,430.471466 250.476593,430.030151 251.169159,429.560822 
	C251.106461,430.002930 250.748932,430.473022 250.036255,430.927979 
z"/>
<path fill="#C6424B" opacity="1.000000" stroke="none" 
	d="
M202.318268,479.957275 
	C202.219650,479.744873 202.358231,479.437286 202.749359,479.052490 
	C202.853073,479.270844 202.704254,479.566467 202.318268,479.957275 
z"/>
<path fill="#F8F4F4" opacity="1.000000" stroke="none" 
	d="
M202.145386,158.752869 
	C201.571014,156.448746 201.102692,154.540421 200.473816,151.977921 
	C206.506256,150.724304 212.022751,146.566162 218.042038,150.846939 
	C221.488235,153.297806 222.446777,157.448456 220.931061,161.159988 
	C218.171417,167.917664 211.241928,167.501907 205.297470,169.638031 
	C204.173340,165.766953 203.212387,162.457794 202.145386,158.752869 
z"/>
<path fill="#F2EDEB" opacity="1.000000" stroke="none" 
	d="
M495.142731,157.068237 
	C491.594940,156.530884 488.497803,156.068893 484.567810,155.482666 
	C487.779022,149.408295 490.816284,143.662964 494.605255,136.495728 
	C495.929779,143.711670 497.059113,149.519470 497.947510,155.363892 
	C498.017914,155.827133 496.417358,156.544388 495.142731,157.068237 
z"/>
<path fill="#F1ECEC" opacity="1.000000" stroke="none" 
	d="
M305.908630,150.764572 
	C307.014252,145.678406 308.055115,140.990707 309.406525,134.904282 
	C312.826569,141.731644 315.674652,147.417206 318.883301,153.822586 
	C314.074127,154.487900 309.921814,155.062347 305.190582,155.716873 
	C305.449982,153.908707 305.646912,152.535873 305.908630,150.764572 
z"/>
</svg>