<?xml version="1.0" standalone="no"?>
<!DOCTYPE svg PUBLIC "-//W3C//DTD SVG 20010904//EN"
 "http://www.w3.org/TR/2001/REC-SVG-20010904/DTD/svg10.dtd">
<svg version="1.0" xmlns="http://www.w3.org/2000/svg"
 width="782.000000pt" height="960.000000pt" viewBox="0 0 782.000000 960.000000"
 preserveAspectRatio="xMidYMid meet">
<metadata>
Created by potrace 1.16, written by Peter Selinger 2001-2019
</metadata>
<g transform="translate(0.000000,960.000000) scale(0.100000,-0.100000)"
fill="#000000" stroke="none">
<path d="M3505 8444 c-99 -7 -181 -13 -183 -13 -2 -1 -2 -22 0 -48 l3 -46 77
2 c74 2 78 1 82 -21 5 -21 26 -366 26 -415 0 -21 5 -23 52 -23 l51 0 -7 118
c-3 64 -9 169 -13 233 l-6 116 77 9 c42 5 77 12 76 17 0 4 0 25 0 47 0 37 -2
40 -27 39 -16 -1 -109 -8 -208 -15z"/>
<path d="M4051 8197 c-28 -145 -51 -270 -51 -279 0 -17 79 -33 93 -18 5 4 22
81 38 171 17 90 32 171 35 179 4 9 31 -36 70 -112 35 -71 66 -128 68 -128 2 0
34 50 71 110 38 61 72 113 76 116 12 7 17 -26 24 -146 3 -58 8 -131 12 -162
l6 -58 48 0 49 0 0 34 c0 57 -40 518 -46 527 -3 5 -22 9 -42 9 -37 0 -38 -1
-109 -117 -39 -65 -75 -119 -80 -120 -6 -2 -23 27 -40 64 -96 214 -82 193
-129 193 l-42 0 -51 -263z"/>
<path d="M3058 8403 c-42 -5 -39 3 -77 -173 -11 -52 -36 -167 -55 -255 -19
-88 -33 -161 -31 -163 2 -2 23 0 48 3 l45 7 14 66 c16 76 16 76 149 88 l79 7
27 -63 28 -62 44 6 c25 3 46 8 49 10 6 7 -262 530 -273 531 -5 1 -27 0 -47 -2z"/>
<path d="M4907 8383 c-11 -18 -46 -83 -84 -153 -22 -41 -75 -139 -118 -218
-42 -79 -75 -146 -72 -149 3 -3 25 -8 49 -10 l43 -5 30 62 29 62 46 -7 c25 -3
72 -11 106 -16 l61 -11 12 -68 c13 -73 20 -80 84 -80 22 0 27 4 23 18 -5 16
-38 184 -88 447 -11 61 -24 113 -27 116 -10 10 -89 20 -94 12z m48 -232 c23
-118 23 -118 -52 -108 -35 5 -63 13 -63 18 0 13 92 181 96 176 2 -2 11 -41 19
-86z"/>
<path d="M2550 8316 c-115 -24 -155 -36 -154 -47 1 -17 106 -533 109 -537 3
-3 357 67 361 71 2 1 -2 23 -9 48 l-12 46 -118 -24 c-65 -14 -124 -22 -131
-20 -13 5 -40 122 -31 137 3 6 15 10 26 10 11 0 52 7 91 16 l70 16 -6 41 c-4
22 -9 43 -11 48 -3 4 -44 -2 -92 -12 -49 -11 -93 -17 -99 -15 -12 5 -30 103
-22 112 3 2 58 15 123 29 65 13 118 25 120 27 1 2 -2 22 -7 46 -11 51 -1 51
-208 8z"/>
<path d="M5206 8323 c-2 -10 -7 -32 -11 -49 l-6 -30 64 -13 c35 -7 69 -16 77
-21 12 -7 6 -44 -34 -217 -27 -114 -49 -214 -50 -222 -1 -9 16 -20 43 -28 25
-7 46 -11 48 -10 1 2 25 100 53 218 27 118 52 219 54 226 4 8 22 7 71 -4 36
-8 72 -13 79 -10 13 5 32 75 22 84 -3 4 -388 93 -401 93 -2 0 -6 -8 -9 -17z"/>
<path d="M2061 8199 c-14 -5 -62 -19 -108 -31 -67 -17 -83 -24 -78 -37 2 -9
20 -72 39 -141 111 -407 106 -390 135 -383 14 3 36 10 48 14 l22 8 -25 91
c-14 50 -24 96 -22 102 2 6 24 17 49 25 l44 13 81 -87 82 -88 48 13 c27 7 51
15 53 18 3 2 -22 33 -55 67 -33 34 -72 76 -88 94 l-28 32 23 32 c34 48 37 131
7 184 -35 59 -79 85 -147 84 -31 0 -67 -5 -80 -10z m119 -103 c29 -32 32 -96
6 -125 -20 -22 -106 -54 -133 -49 -12 2 -23 27 -39 85 l-22 82 41 15 c67 23
119 20 147 -8z"/>
<path d="M5644 7947 c-44 -144 -78 -265 -75 -269 6 -6 327 -108 341 -108 11 0
32 82 23 90 -8 7 -147 52 -206 66 -15 3 -29 10 -32 14 -4 6 32 127 40 138 2 2
38 -8 81 -22 103 -34 109 -34 122 13 7 21 12 40 12 43 0 2 -40 17 -90 33 -66
21 -90 33 -90 45 0 20 20 82 30 93 4 4 57 -8 117 -27 60 -20 114 -36 120 -36
14 0 38 79 27 89 -10 10 -306 101 -326 101 -8 0 -44 -100 -94 -263z"/>
<path d="M1600 8064 c-79 -21 -157 -78 -194 -145 -27 -47 -31 -63 -30 -129 0
-97 36 -180 103 -243 60 -56 104 -71 195 -65 74 5 157 39 220 91 l30 24 -44
121 -45 120 -79 -29 c-43 -16 -81 -31 -83 -33 -3 -3 1 -21 8 -41 11 -30 17
-35 34 -30 48 16 58 11 73 -34 14 -41 13 -44 -4 -55 -108 -64 -213 -39 -267
62 -81 149 -21 271 146 301 32 6 61 10 65 8 12 -4 14 12 7 53 -6 38 -8 40 -43
39 -21 0 -62 -7 -92 -15z"/>
<path d="M6202 8015 c-43 -19 -69 -50 -83 -100 -18 -65 0 -103 96 -198 90 -89
100 -111 69 -155 -29 -42 -110 -19 -197 56 -27 23 -51 42 -55 42 -4 0 -17 -19
-30 -43 l-23 -42 38 -33 c99 -86 251 -126 320 -83 39 24 62 59 73 106 15 66
-4 103 -101 196 -73 70 -89 91 -89 115 0 39 16 54 57 54 40 0 102 -30 160 -76
l41 -34 21 34 c12 18 21 40 21 48 0 20 -81 76 -149 105 -64 26 -121 29 -169 8z"/>
<path d="M3550 7750 c-741 -48 -1510 -233 -2128 -512 l-112 -50 -15 -52 c-8
-28 -26 -91 -40 -141 -260 -909 -319 -1861 -164 -2655 84 -430 250 -900 446
-1259 l45 -83 57 108 c111 210 201 365 292 501 686 1027 1680 1845 2804 2308
423 175 937 317 1370 381 60 8 112 17 114 20 2 2 -5 7 -15 10 -10 4 -35 13
-54 21 -74 31 -229 87 -330 119 -997 324 -2027 387 -3079 188 -159 -30 -531
-119 -583 -139 -20 -8 -29 -37 -57 -190 -36 -198 -78 -532 -68 -542 3 -3 50 9
104 25 280 87 661 166 1033 213 320 41 320 41 184 -46 -548 -350 -1072 -821
-1489 -1340 -49 -60 -91 -111 -95 -113 -9 -4 -37 240 -51 443 -23 324 2 815
61 1200 26 167 97 520 110 545 14 26 286 109 607 185 810 191 1708 216 2518
69 541 -98 1108 -285 1574 -518 73 -37 135 -65 137 -63 13 13 -91 452 -157
663 l-42 132 -141 62 c-609 270 -1226 430 -1907 495 -193 19 -734 27 -929 15z"/>
<path d="M6425 6129 c-559 -83 -965 -190 -1465 -389 -933 -371 -1797 -1005
-2466 -1810 -224 -270 -507 -698 -681 -1030 -83 -160 -82 -148 -32 -222 115
-170 377 -494 389 -481 4 4 42 75 84 156 164 315 379 644 618 944 309 389 706
781 1088 1074 192 148 612 420 626 407 2 -3 -29 -74 -70 -159 -134 -278 -260
-602 -344 -879 -65 -215 -71 -239 -64 -244 4 -2 93 0 199 5 465 20 918 92
1361 217 56 16 102 26 102 22 0 -14 -33 -87 -110 -241 -334 -668 -840 -1236
-1515 -1701 -215 -148 -543 -336 -780 -449 -69 -32 -125 -60 -125 -63 0 -6
265 -162 375 -221 50 -26 137 -69 194 -95 123 -55 87 -62 341 65 462 231 915
538 1236 837 43 41 96 90 118 109 21 19 93 94 159 167 439 482 739 998 936
1605 84 258 156 588 190 867 24 193 36 340 28 340 -3 0 -34 -16 -69 -36 -168
-96 -516 -263 -723 -346 -237 -96 -782 -268 -847 -268 -35 0 -18 47 90 241
320 574 658 1019 1100 1446 81 79 140 142 132 142 -8 -1 -42 -5 -75 -10z"/>
</g>
</svg>
